<?xml version="1.0" encoding="utf-8"?>
<svg version="1.1" id="Camada_1" xmlns="http://www.w3.org/2000/svg" xmlns:xlink="http://www.w3.org/1999/xlink" x="0px" y="0px"
	 viewBox="0 0 1080 1080" style="enable-background:new 0 0 1080 1080;" xml:space="preserve">
<style type="text/css">
	.st0{filter:url(#Adobe_OpacityMaskFilter);}
	.st1{mask:url(#d5ee2c899e_00000132771289502579828600000000324133082169241770_);}
	.st2{clip-path:url(#SVGID_00000088835547728390597760000006984688698636510852_);}
	.st3{fill:#FFFFFF;}
	.st4{clip-path:url(#SVGID_00000047059389631276568860000016083593543578405027_);}
	.st5{fill:#5D397D;}
	.st6{fill:#767676;}
	.st7{fill:#100F0D;}
	.st8{fill:#%s;}
</style>
<defs>
	<filter id="Adobe_OpacityMaskFilter" filterUnits="userSpaceOnUse" x="0" y="0" width="1080" height="1080">
		<feColorMatrix  type="matrix" values="1 0 0 0 0  0 1 0 0 0  0 0 1 0 0  0 0 0 1 0"/>
	</filter>
</defs>
<mask maskUnits="userSpaceOnUse" x="0" y="0" width="1080" height="1080" id="d5ee2c899e_00000132771289502579828600000000324133082169241770_">
	<g class="st0">
		<g transform="matrix(0.54, 0, 0, 0.54, 0.0000035, 0.00002)">
			
				<image style="overflow:visible;enable-background:new    ;" width="1500" height="1500" xlink:href="Back.png"  transform="matrix(1.3333 0 0 1.3333 -7.407407e-06 1.234568e-05)">
			</image>
		</g>
	</g>
</mask>
<g class="st1">
	<g transform="matrix(0.54, 0, 0, 0.54, 0.0000035, 0.00002)">
		<g transform="matrix(1 0 0 1 -4.547474e-13 0)" style="enable-background:new    ;">
			
				<image style="overflow:visible;" width="1500" height="1500" xlink:href="Back.png"  transform="matrix(1.3333 0 0 1.3333 -7.407407e-06 1.234568e-05)">
			</image>
		</g>
	</g>
</g>
<g>
	<defs>
		<rect id="SVGID_1_" x="298.5" y="199.2" width="483" height="810"/>
	</defs>
	<clipPath id="SVGID_00000074420340646363689700000016317092478001668520_">
		<use xlink:href="#SVGID_1_"  style="overflow:visible;"/>
	</clipPath>
	<g style="clip-path:url(#SVGID_00000074420340646363689700000016317092478001668520_);">
		<path class="st3" d="M751.5,1008.8L740.7,990l-10.8,18.8h-9.2L709.8,990l-10.8,18.8h-9.2L678.9,990l-10.8,18.8h-9.2L648,990
			l-10.8,18.8h-9.2L617.1,990l-10.8,18.8H597L586.2,990l-10.8,18.8h-9.2L555.3,990l-10.8,18.8h-9.2L524.4,990l-11.5,18.8h-9.2
			L492.8,990l-10.8,18.8h-9.2L461.9,990l-10.8,18.8h-9.2L431,990l-10.8,18.8h-9.2L400.1,990l-10.8,18.8H380L369.2,990l-10.8,18.8
			h-9.2L338.3,990l-11.5,18.8h-9.2L306.7,990l-8.2,14.4V787.9c0.3,0,0.5,0,0.6,0c22.3,0,40.5-18.1,40.5-40.5
			c0-22.3-18.1-40.5-40.5-40.5c-0.3,0-0.5,0-0.6,0V201.6l8.2,14.4l9.4-16.3h12.1l9.4,16.3l9.5-16.3h12.1l9.4,16.3l9.4-16.3h12.1
			l9.4,16.3l9.5-16.3h12.1l9.4,16.3l9.4-16.3h12.1l9.4,16.3l9.5-16.3h12.1l9.4,16.3l9.5-16.3h12.1l9.4,16.3l9.4-16.3h12.1l9.4,16.3
			l9.5-16.3h12.1l9.4,16.3l9.4-16.3h12.1l9.4,16.3l9.5-16.3h12.1l9.4,16.3l9.5-16.3h12.1l9.4,16.3l9.4-16.3h12.1l9.4,16.3l9.5-16.3
			h12.1l9.4,16.3l9.4-16.3h12.1l9.5,16.3l9.4-16.3h0.3v507.2c-0.3,0-0.5,0-0.8,0c-22.3,0-40.5,18.1-40.5,40.5s18.1,40.5,40.5,40.5
			c0.3,0,0.5,0,0.8,0v219.1l-9.7-16.8l-10.8,18.8H751.5z"/>
	</g>
</g>
<g>
	<defs>
		<rect id="SVGID_00000011734508798923972160000016505021545591088520_" x="298.5" y="108" width="482.8" height="130.7"/>
	</defs>
	<clipPath id="SVGID_00000149344238354976223150000008806699429154479492_">
		<use xlink:href="#SVGID_00000011734508798923972160000016505021545591088520_"  style="overflow:visible;"/>
	</clipPath>
	<g style="clip-path:url(#SVGID_00000149344238354976223150000008806699429154479492_);">
		<path class="st5" d="M298.5,108h482.3v130H298.5V108z"/>
	</g>
</g>
<path d="M733.9,415.8h-9c-0.2,0-0.4,0-0.6-0.1c-0.2-0.1-0.3-0.2-0.5-0.3s-0.2-0.3-0.3-0.5c-0.1-0.2-0.1-0.4-0.1-0.6s0-0.4,0.1-0.6
	c0.1-0.2,0.2-0.3,0.3-0.5s0.3-0.2,0.5-0.3c0.2-0.1,0.4-0.1,0.6-0.1h9c0.2,0,0.4,0,0.6,0.1c0.2,0.1,0.3,0.2,0.5,0.3s0.2,0.3,0.3,0.5
	c0.1,0.2,0.1,0.4,0.1,0.6s0,0.4-0.1,0.6c-0.1,0.2-0.2,0.3-0.3,0.5s-0.3,0.2-0.5,0.3C734.3,415.7,734.1,415.8,733.9,415.8z
	 M718.9,415.8h-9c-0.2,0-0.4,0-0.6-0.1c-0.2-0.1-0.3-0.2-0.5-0.3s-0.2-0.3-0.3-0.5c-0.1-0.2-0.1-0.4-0.1-0.6s0-0.4,0.1-0.6
	c0.1-0.2,0.2-0.3,0.3-0.5s0.3-0.2,0.5-0.3c0.2-0.1,0.4-0.1,0.6-0.1h9c0.2,0,0.4,0,0.6,0.1c0.2,0.1,0.3,0.2,0.5,0.3s0.2,0.3,0.3,0.5
	c0.1,0.2,0.1,0.4,0.1,0.6s0,0.4-0.1,0.6c-0.1,0.2-0.2,0.3-0.3,0.5s-0.3,0.2-0.5,0.3C719.3,415.7,719.1,415.8,718.9,415.8z
	 M703.9,415.8h-9c-0.2,0-0.4,0-0.6-0.1c-0.2-0.1-0.3-0.2-0.5-0.3s-0.2-0.3-0.3-0.5c-0.1-0.2-0.1-0.4-0.1-0.6s0-0.4,0.1-0.6
	c0.1-0.2,0.2-0.3,0.3-0.5s0.3-0.2,0.5-0.3s0.4-0.1,0.6-0.1h9c0.2,0,0.4,0,0.6,0.1s0.3,0.2,0.5,0.3s0.2,0.3,0.3,0.5
	c0.1,0.2,0.1,0.4,0.1,0.6s0,0.4-0.1,0.6c-0.1,0.2-0.2,0.3-0.3,0.5s-0.3,0.2-0.5,0.3C704.2,415.7,704.1,415.8,703.9,415.8z
	 M688.8,415.8h-9c-0.2,0-0.4,0-0.6-0.1c-0.2-0.1-0.3-0.2-0.5-0.3s-0.2-0.3-0.3-0.5c-0.1-0.2-0.1-0.4-0.1-0.6s0-0.4,0.1-0.6
	c0.1-0.2,0.2-0.3,0.3-0.5s0.3-0.2,0.5-0.3c0.2-0.1,0.4-0.1,0.6-0.1h9c0.2,0,0.4,0,0.6,0.1c0.2,0.1,0.3,0.2,0.5,0.3s0.2,0.3,0.3,0.5
	c0.1,0.2,0.1,0.4,0.1,0.6s0,0.4-0.1,0.6c-0.1,0.2-0.2,0.3-0.3,0.5s-0.3,0.2-0.5,0.3C689.2,415.7,689,415.8,688.8,415.8z
	 M673.8,415.8h-9c-0.2,0-0.4,0-0.6-0.1c-0.2-0.1-0.3-0.2-0.5-0.3s-0.2-0.3-0.3-0.5c-0.1-0.2-0.1-0.4-0.1-0.6s0-0.4,0.1-0.6
	c0.1-0.2,0.2-0.3,0.3-0.5s0.3-0.2,0.5-0.3c0.2-0.1,0.4-0.1,0.6-0.1h9c0.2,0,0.4,0,0.6,0.1c0.2,0.1,0.3,0.2,0.5,0.3s0.2,0.3,0.3,0.5
	c0.1,0.2,0.1,0.4,0.1,0.6s0,0.4-0.1,0.6c-0.1,0.2-0.2,0.3-0.3,0.5s-0.3,0.2-0.5,0.3C674.2,415.7,674,415.8,673.8,415.8z
	 M658.8,415.8h-9c-0.2,0-0.4,0-0.6-0.1c-0.2-0.1-0.3-0.2-0.5-0.3c-0.1-0.1-0.2-0.3-0.3-0.5c-0.1-0.2-0.1-0.4-0.1-0.6s0-0.4,0.1-0.6
	c0.1-0.2,0.2-0.3,0.3-0.5c0.1-0.1,0.3-0.2,0.5-0.3c0.2-0.1,0.4-0.1,0.6-0.1h9c0.2,0,0.4,0,0.6,0.1c0.2,0.1,0.3,0.2,0.5,0.3
	c0.1,0.1,0.2,0.3,0.3,0.5c0.1,0.2,0.1,0.4,0.1,0.6s0,0.4-0.1,0.6c-0.1,0.2-0.2,0.3-0.3,0.5c-0.1,0.1-0.3,0.2-0.5,0.3
	C659.2,415.7,659,415.8,658.8,415.8z M643.8,415.8h-9c-0.2,0-0.4,0-0.6-0.1c-0.2-0.1-0.3-0.2-0.5-0.3s-0.2-0.3-0.3-0.5
	c-0.1-0.2-0.1-0.4-0.1-0.6s0-0.4,0.1-0.6c0.1-0.2,0.2-0.3,0.3-0.5s0.3-0.2,0.5-0.3c0.2-0.1,0.4-0.1,0.6-0.1h9c0.2,0,0.4,0,0.6,0.1
	c0.2,0.1,0.3,0.2,0.5,0.3s0.2,0.3,0.3,0.5c0.1,0.2,0.1,0.4,0.1,0.6s0,0.4-0.1,0.6c-0.1,0.2-0.2,0.3-0.3,0.5s-0.3,0.2-0.5,0.3
	C644.2,415.7,644,415.8,643.8,415.8z M628.8,415.8h-9c-0.2,0-0.4,0-0.6-0.1c-0.2-0.1-0.3-0.2-0.5-0.3s-0.2-0.3-0.3-0.5
	c-0.1-0.2-0.1-0.4-0.1-0.6s0-0.4,0.1-0.6c0.1-0.2,0.2-0.3,0.3-0.5s0.3-0.2,0.5-0.3c0.2-0.1,0.4-0.1,0.6-0.1h9c0.2,0,0.4,0,0.6,0.1
	c0.2,0.1,0.3,0.2,0.5,0.3s0.2,0.3,0.3,0.5c0.1,0.2,0.1,0.4,0.1,0.6s0,0.4-0.1,0.6c-0.1,0.2-0.2,0.3-0.3,0.5s-0.3,0.2-0.5,0.3
	C629.2,415.7,629,415.8,628.8,415.8z M613.8,415.8h-9c-0.2,0-0.4,0-0.6-0.1c-0.2-0.1-0.3-0.2-0.5-0.3s-0.2-0.3-0.3-0.5
	c-0.1-0.2-0.1-0.4-0.1-0.6s0-0.4,0.1-0.6c0.1-0.2,0.2-0.3,0.3-0.5s0.3-0.2,0.5-0.3c0.2-0.1,0.4-0.1,0.6-0.1h9c0.2,0,0.4,0,0.6,0.1
	c0.2,0.1,0.3,0.2,0.5,0.3s0.2,0.3,0.3,0.5c0.1,0.2,0.1,0.4,0.1,0.6s0,0.4-0.1,0.6c-0.1,0.2-0.2,0.3-0.3,0.5s-0.3,0.2-0.5,0.3
	C614.2,415.7,614,415.8,613.8,415.8z M598.8,415.8h-9c-0.2,0-0.4,0-0.6-0.1c-0.2-0.1-0.3-0.2-0.5-0.3s-0.2-0.3-0.3-0.5
	c-0.1-0.2-0.1-0.4-0.1-0.6s0-0.4,0.1-0.6c0.1-0.2,0.2-0.3,0.3-0.5s0.3-0.2,0.5-0.3c0.2-0.1,0.4-0.1,0.6-0.1h9c0.2,0,0.4,0,0.6,0.1
	c0.2,0.1,0.3,0.2,0.5,0.3s0.2,0.3,0.3,0.5c0.1,0.2,0.1,0.4,0.1,0.6s0,0.4-0.1,0.6c-0.1,0.2-0.2,0.3-0.3,0.5s-0.3,0.2-0.5,0.3
	C599.2,415.7,599,415.8,598.8,415.8z M583.8,415.8h-9c-0.2,0-0.4,0-0.6-0.1c-0.2-0.1-0.3-0.2-0.5-0.3s-0.2-0.3-0.3-0.5
	c-0.1-0.2-0.1-0.4-0.1-0.6s0-0.4,0.1-0.6c0.1-0.2,0.2-0.3,0.3-0.5s0.3-0.2,0.5-0.3c0.2-0.1,0.4-0.1,0.6-0.1h9c0.2,0,0.4,0,0.6,0.1
	c0.2,0.1,0.3,0.2,0.5,0.3s0.2,0.3,0.3,0.5c0.1,0.2,0.1,0.4,0.1,0.6s0,0.4-0.1,0.6c-0.1,0.2-0.2,0.3-0.3,0.5s-0.3,0.2-0.5,0.3
	C584.2,415.7,584,415.8,583.8,415.8z M568.8,415.8h-9c-0.2,0-0.4,0-0.6-0.1c-0.2-0.1-0.3-0.2-0.5-0.3s-0.2-0.3-0.3-0.5
	c-0.1-0.2-0.1-0.4-0.1-0.6s0-0.4,0.1-0.6c0.1-0.2,0.2-0.3,0.3-0.5s0.3-0.2,0.5-0.3s0.4-0.1,0.6-0.1h9c0.2,0,0.4,0,0.6,0.1
	s0.3,0.2,0.5,0.3s0.2,0.3,0.3,0.5c0.1,0.2,0.1,0.4,0.1,0.6s0,0.4-0.1,0.6c-0.1,0.2-0.2,0.3-0.3,0.5s-0.3,0.2-0.5,0.3
	C569.1,415.7,568.9,415.8,568.8,415.8z M553.7,415.8h-9c-0.2,0-0.4,0-0.6-0.1c-0.2-0.1-0.3-0.2-0.5-0.3s-0.2-0.3-0.3-0.5
	c-0.1-0.2-0.1-0.4-0.1-0.6s0-0.4,0.1-0.6c0.1-0.2,0.2-0.3,0.3-0.5s0.3-0.2,0.5-0.3c0.2-0.1,0.4-0.1,0.6-0.1h9c0.2,0,0.4,0,0.6,0.1
	c0.2,0.1,0.3,0.2,0.5,0.3s0.2,0.3,0.3,0.5c0.1,0.2,0.1,0.4,0.1,0.6s0,0.4-0.1,0.6c-0.1,0.2-0.2,0.3-0.3,0.5s-0.3,0.2-0.5,0.3
	C554.1,415.7,553.9,415.8,553.7,415.8z M538.7,415.8h-9c-0.2,0-0.4,0-0.6-0.1c-0.2-0.1-0.3-0.2-0.5-0.3s-0.2-0.3-0.3-0.5
	c-0.1-0.2-0.1-0.4-0.1-0.6s0-0.4,0.1-0.6c0.1-0.2,0.2-0.3,0.3-0.5s0.3-0.2,0.5-0.3c0.2-0.1,0.4-0.1,0.6-0.1h9c0.2,0,0.4,0,0.6,0.1
	c0.2,0.1,0.3,0.2,0.5,0.3s0.2,0.3,0.3,0.5c0.1,0.2,0.1,0.4,0.1,0.6s0,0.4-0.1,0.6c-0.1,0.2-0.2,0.3-0.3,0.5s-0.3,0.2-0.5,0.3
	C539.1,415.7,538.9,415.8,538.7,415.8z M523.7,415.8h-9c-0.2,0-0.4,0-0.6-0.1c-0.2-0.1-0.3-0.2-0.5-0.3s-0.2-0.3-0.3-0.5
	c-0.1-0.2-0.1-0.4-0.1-0.6s0-0.4,0.1-0.6c0.1-0.2,0.2-0.3,0.3-0.5s0.3-0.2,0.5-0.3c0.2-0.1,0.4-0.1,0.6-0.1h9c0.2,0,0.4,0,0.6,0.1
	c0.2,0.1,0.3,0.2,0.5,0.3s0.2,0.3,0.3,0.5c0.1,0.2,0.1,0.4,0.1,0.6s0,0.4-0.1,0.6c-0.1,0.2-0.2,0.3-0.3,0.5s-0.3,0.2-0.5,0.3
	C524.1,415.7,523.9,415.8,523.7,415.8z M508.7,415.8h-9c-0.2,0-0.4,0-0.6-0.1c-0.2-0.1-0.3-0.2-0.5-0.3s-0.2-0.3-0.3-0.5
	c-0.1-0.2-0.1-0.4-0.1-0.6s0-0.4,0.1-0.6c0.1-0.2,0.2-0.3,0.3-0.5s0.3-0.2,0.5-0.3c0.2-0.1,0.4-0.1,0.6-0.1h9c0.2,0,0.4,0,0.6,0.1
	c0.2,0.1,0.3,0.2,0.5,0.3s0.2,0.3,0.3,0.5c0.1,0.2,0.1,0.4,0.1,0.6s0,0.4-0.1,0.6c-0.1,0.2-0.2,0.3-0.3,0.5s-0.3,0.2-0.5,0.3
	C509.1,415.7,508.9,415.8,508.7,415.8z M493.7,415.8h-9c-0.2,0-0.4,0-0.6-0.1c-0.2-0.1-0.3-0.2-0.5-0.3s-0.2-0.3-0.3-0.5
	c-0.1-0.2-0.1-0.4-0.1-0.6s0-0.4,0.1-0.6c0.1-0.2,0.2-0.3,0.3-0.5s0.3-0.2,0.5-0.3c0.2-0.1,0.4-0.1,0.6-0.1h9c0.2,0,0.4,0,0.6,0.1
	c0.2,0.1,0.3,0.2,0.5,0.3s0.2,0.3,0.3,0.5c0.1,0.2,0.1,0.4,0.1,0.6s0,0.4-0.1,0.6c-0.1,0.2-0.2,0.3-0.3,0.5s-0.3,0.2-0.5,0.3
	C494.1,415.7,493.9,415.8,493.7,415.8z M478.7,415.8h-9c-0.2,0-0.4,0-0.6-0.1c-0.2-0.1-0.3-0.2-0.5-0.3s-0.2-0.3-0.3-0.5
	c-0.1-0.2-0.1-0.4-0.1-0.6s0-0.4,0.1-0.6c0.1-0.2,0.2-0.3,0.3-0.5s0.3-0.2,0.5-0.3c0.2-0.1,0.4-0.1,0.6-0.1h9c0.2,0,0.4,0,0.6,0.1
	c0.2,0.1,0.3,0.2,0.5,0.3s0.2,0.3,0.3,0.5c0.1,0.2,0.1,0.4,0.1,0.6s0,0.4-0.1,0.6c-0.1,0.2-0.2,0.3-0.3,0.5s-0.3,0.2-0.5,0.3
	C479.1,415.7,478.9,415.8,478.7,415.8z M463.7,415.8h-9c-0.2,0-0.4,0-0.6-0.1c-0.2-0.1-0.3-0.2-0.5-0.3c-0.1-0.1-0.2-0.3-0.3-0.5
	c-0.1-0.2-0.1-0.4-0.1-0.6s0-0.4,0.1-0.6c0.1-0.2,0.2-0.3,0.3-0.5c0.1-0.1,0.3-0.2,0.5-0.3s0.4-0.1,0.6-0.1h9c0.2,0,0.4,0,0.6,0.1
	s0.3,0.2,0.5,0.3c0.1,0.1,0.2,0.3,0.3,0.5c0.1,0.2,0.1,0.4,0.1,0.6s0,0.4-0.1,0.6c-0.1,0.2-0.2,0.3-0.3,0.5
	c-0.1,0.1-0.3,0.2-0.5,0.3C464.1,415.7,463.9,415.8,463.7,415.8z M448.7,415.8h-9c-0.2,0-0.4,0-0.6-0.1c-0.2-0.1-0.3-0.2-0.5-0.3
	s-0.2-0.3-0.3-0.5c-0.1-0.2-0.1-0.4-0.1-0.6s0-0.4,0.1-0.6c0.1-0.2,0.2-0.3,0.3-0.5s0.3-0.2,0.5-0.3c0.2-0.1,0.4-0.1,0.6-0.1h9
	c0.2,0,0.4,0,0.6,0.1c0.2,0.1,0.3,0.2,0.5,0.3s0.2,0.3,0.3,0.5c0.1,0.2,0.1,0.4,0.1,0.6s0,0.4-0.1,0.6c-0.1,0.2-0.2,0.3-0.3,0.5
	s-0.3,0.2-0.5,0.3C449,415.7,448.9,415.8,448.7,415.8z M433.6,415.8h-9c-0.2,0-0.4,0-0.6-0.1c-0.2-0.1-0.3-0.2-0.5-0.3
	s-0.2-0.3-0.3-0.5c-0.1-0.2-0.1-0.4-0.1-0.6s0-0.4,0.1-0.6c0.1-0.2,0.2-0.3,0.3-0.5s0.3-0.2,0.5-0.3c0.2-0.1,0.4-0.1,0.6-0.1h9
	c0.2,0,0.4,0,0.6,0.1c0.2,0.1,0.3,0.2,0.5,0.3s0.2,0.3,0.3,0.5c0.1,0.2,0.1,0.4,0.1,0.6s0,0.4-0.1,0.6c-0.1,0.2-0.2,0.3-0.3,0.5
	s-0.3,0.2-0.5,0.3C434,415.7,433.8,415.8,433.6,415.8z M418.6,415.8h-9c-0.2,0-0.4,0-0.6-0.1c-0.2-0.1-0.3-0.2-0.5-0.3
	s-0.2-0.3-0.3-0.5c-0.1-0.2-0.1-0.4-0.1-0.6s0-0.4,0.1-0.6c0.1-0.2,0.2-0.3,0.3-0.5s0.3-0.2,0.5-0.3c0.2-0.1,0.4-0.1,0.6-0.1h9
	c0.2,0,0.4,0,0.6,0.1c0.2,0.1,0.3,0.2,0.5,0.3s0.2,0.3,0.3,0.5c0.1,0.2,0.1,0.4,0.1,0.6s0,0.4-0.1,0.6c-0.1,0.2-0.2,0.3-0.3,0.5
	s-0.3,0.2-0.5,0.3C419,415.7,418.8,415.8,418.6,415.8z M403.6,415.8h-9c-0.2,0-0.4,0-0.6-0.1c-0.2-0.1-0.3-0.2-0.5-0.3
	s-0.2-0.3-0.3-0.5c-0.1-0.2-0.1-0.4-0.1-0.6s0-0.4,0.1-0.6c0.1-0.2,0.2-0.3,0.3-0.5s0.3-0.2,0.5-0.3c0.2-0.1,0.4-0.1,0.6-0.1h9
	c0.2,0,0.4,0,0.6,0.1c0.2,0.1,0.3,0.2,0.5,0.3s0.2,0.3,0.3,0.5c0.1,0.2,0.1,0.4,0.1,0.6s0,0.4-0.1,0.6c-0.1,0.2-0.2,0.3-0.3,0.5
	s-0.3,0.2-0.5,0.3C404,415.7,403.8,415.8,403.6,415.8z M388.6,415.8h-9c-0.2,0-0.4,0-0.6-0.1c-0.2-0.1-0.3-0.2-0.5-0.3
	s-0.2-0.3-0.3-0.5c-0.1-0.2-0.1-0.4-0.1-0.6s0-0.4,0.1-0.6c0.1-0.2,0.2-0.3,0.3-0.5s0.3-0.2,0.5-0.3c0.2-0.1,0.4-0.1,0.6-0.1h9
	c0.2,0,0.4,0,0.6,0.1c0.2,0.1,0.3,0.2,0.5,0.3s0.2,0.3,0.3,0.5c0.1,0.2,0.1,0.4,0.1,0.6s0,0.4-0.1,0.6c-0.1,0.2-0.2,0.3-0.3,0.5
	s-0.3,0.2-0.5,0.3C389,415.7,388.8,415.8,388.6,415.8z M373.6,415.8h-9c-0.2,0-0.4,0-0.6-0.1c-0.2-0.1-0.3-0.2-0.5-0.3
	s-0.2-0.3-0.3-0.5c-0.1-0.2-0.1-0.4-0.1-0.6s0-0.4,0.1-0.6c0.1-0.2,0.2-0.3,0.3-0.5s0.3-0.2,0.5-0.3c0.2-0.1,0.4-0.1,0.6-0.1h9
	c0.2,0,0.4,0,0.6,0.1c0.2,0.1,0.3,0.2,0.5,0.3s0.2,0.3,0.3,0.5c0.1,0.2,0.1,0.4,0.1,0.6s0,0.4-0.1,0.6c-0.1,0.2-0.2,0.3-0.3,0.5
	s-0.3,0.2-0.5,0.3C374,415.7,373.8,415.8,373.6,415.8z M358.6,415.8h-9c-0.2,0-0.4,0-0.6-0.1c-0.2-0.1-0.3-0.2-0.5-0.3
	s-0.2-0.3-0.3-0.5c-0.1-0.2-0.1-0.4-0.1-0.6s0-0.4,0.1-0.6c0.1-0.2,0.2-0.3,0.3-0.5s0.3-0.2,0.5-0.3c0.2-0.1,0.4-0.1,0.6-0.1h9
	c0.2,0,0.4,0,0.6,0.1c0.2,0.1,0.3,0.2,0.5,0.3s0.2,0.3,0.3,0.5c0.1,0.2,0.1,0.4,0.1,0.6s0,0.4-0.1,0.6c-0.1,0.2-0.2,0.3-0.3,0.5
	s-0.3,0.2-0.5,0.3C359,415.7,358.8,415.8,358.6,415.8z"/>
<g>
	<g transform="translate(467.214652, 263.235153)">
		<g>
			<path d="M162.3,85.3c0.6,0,1.1-0.1,1.6-0.4c0.5-0.2,1.1-0.7,1.6-1.3l1.7,1.6c-0.7,0.9-1.5,1.5-2.3,2c-0.9,0.4-1.8,0.7-2.7,0.7
				c-0.8,0-1.6-0.2-2.4-0.5c-0.7-0.3-1.4-0.8-1.9-1.4c-0.5-0.6-0.9-1.3-1.2-2c-0.3-0.8-0.5-1.6-0.5-2.5c0-0.9,0.2-1.7,0.5-2.4
				c0.3-0.8,0.8-1.4,1.3-2c0.6-0.6,1.2-1,1.9-1.4c0.7-0.3,1.5-0.5,2.4-0.5c0.8,0,1.5,0.1,2.2,0.4c0.7,0.3,1.4,0.8,2.1,1.4l-1.5,1.9
				c-0.5-0.5-0.9-0.8-1.4-0.9c-0.4-0.2-0.9-0.2-1.4-0.2c-0.5,0-0.9,0.1-1.4,0.3c-0.4,0.2-0.8,0.5-1.1,0.8c-0.3,0.3-0.6,0.7-0.7,1.2
				c-0.2,0.5-0.3,0.9-0.3,1.5c0,0.5,0.1,1,0.3,1.5c0.2,0.4,0.4,0.8,0.7,1.2c0.3,0.3,0.7,0.6,1.1,0.8
				C161.4,85.3,161.9,85.3,162.3,85.3z"/>
		</g>
	</g>
</g>
<g>
	<g transform="translate(476.24689, 263.235153)">
		<g>
			<path d="M165.4,75.3c0.8,0,1.6,0.2,2.4,0.5c0.7,0.3,1.4,0.8,1.9,1.4c0.6,0.6,1,1.2,1.3,2c0.3,0.8,0.5,1.6,0.5,2.4
				c0,0.9-0.2,1.7-0.5,2.5c-0.3,0.8-0.8,1.5-1.3,2c-0.5,0.6-1.2,1-1.9,1.4c-0.7,0.3-1.5,0.5-2.4,0.5c-0.8,0-1.6-0.2-2.4-0.5
				c-0.7-0.3-1.4-0.8-1.9-1.4c-0.5-0.6-1-1.3-1.3-2c-0.3-0.8-0.5-1.6-0.5-2.5c0-0.9,0.2-1.7,0.5-2.4c0.3-0.8,0.8-1.4,1.3-2
				c0.5-0.6,1.2-1,1.9-1.4C163.7,75.5,164.5,75.3,165.4,75.3z M165.4,85.3c0.5,0,0.9-0.1,1.3-0.3c0.4-0.2,0.8-0.5,1.1-0.8
				c0.3-0.3,0.6-0.7,0.8-1.2c0.2-0.5,0.3-0.9,0.3-1.5c0-0.5-0.1-1-0.3-1.5c-0.2-0.5-0.4-0.9-0.8-1.2c-0.3-0.3-0.7-0.6-1.1-0.8
				c-0.4-0.2-0.9-0.3-1.3-0.3c-0.5,0-0.9,0.1-1.3,0.3c-0.4,0.2-0.8,0.5-1.1,0.8c-0.3,0.3-0.6,0.7-0.7,1.2c-0.2,0.5-0.3,0.9-0.3,1.5
				c0,0.5,0.1,1,0.3,1.5c0.2,0.4,0.4,0.8,0.7,1.2c0.3,0.3,0.7,0.6,1.1,0.8C164.5,85.3,164.9,85.3,165.4,85.3z"/>
		</g>
	</g>
</g>
<g>
	<g transform="translate(486.188841, 263.235153)">
		<g>
			<path d="M171.7,79.1c0,0.4-0.1,0.8-0.2,1.1c-0.1,0.3-0.2,0.7-0.5,1c-0.2,0.3-0.4,0.6-0.7,0.8c-0.3,0.2-0.6,0.4-0.9,0.5l4.1,5.2
				h-3.1l-3.8-5h-1.2v5h-2.6V75.5h5.3c0.5,0,0.9,0.1,1.4,0.3c0.4,0.2,0.8,0.5,1.1,0.8c0.3,0.3,0.6,0.7,0.8,1.1
				C171.6,78.1,171.7,78.6,171.7,79.1z M167.9,80.4c0.3,0,0.6-0.1,0.9-0.4c0.2-0.2,0.4-0.5,0.4-0.9c0-0.3-0.1-0.6-0.4-0.9
				c-0.2-0.2-0.5-0.4-0.9-0.4h-2.3v2.5H167.9z"/>
		</g>
	</g>
</g>
<g>
	<g transform="translate(466.609365, 277.283677)">
		<g>
			<path d="M166.6,92.4h-2.3l-3.9-5.3h-2.1v5.3h-1.8V80.1h5c0.5,0,0.9,0.1,1.4,0.3c0.4,0.2,0.8,0.4,1.1,0.8c0.3,0.3,0.6,0.7,0.8,1.1
				c0.2,0.4,0.3,0.9,0.3,1.4c0,0.4-0.1,0.8-0.2,1.1c-0.1,0.4-0.3,0.7-0.5,1c-0.2,0.3-0.5,0.5-0.8,0.8c-0.3,0.2-0.6,0.4-1,0.5
				L166.6,92.4z M161.5,85.4c0.2,0,0.5,0,0.7-0.1c0.2-0.1,0.4-0.2,0.6-0.4c0.2-0.2,0.3-0.4,0.4-0.6c0.1-0.2,0.1-0.5,0.1-0.7
				c0-0.3-0.1-0.5-0.1-0.7c-0.1-0.2-0.2-0.4-0.4-0.6c-0.2-0.2-0.3-0.3-0.6-0.4c-0.2-0.1-0.5-0.2-0.7-0.2h-3.2v3.7L161.5,85.4z"/>
		</g>
	</g>
</g>
<g>
	<g transform="translate(475.134755, 277.283677)">
		<g>
			<path d="M163,92.6c-0.6,0-1.1-0.1-1.6-0.3c-0.5-0.2-0.9-0.5-1.3-0.9c-0.4-0.4-0.7-0.9-0.9-1.4c-0.2-0.5-0.3-1.1-0.3-1.7
				c0-0.6,0.1-1.2,0.3-1.7c0.2-0.5,0.5-1,0.9-1.4c0.4-0.4,0.8-0.7,1.3-0.9c0.5-0.2,1.1-0.4,1.6-0.4c0.6,0,1.1,0.1,1.6,0.4
				c0.5,0.2,1,0.5,1.3,0.9c0.4,0.4,0.7,0.9,0.9,1.4c0.2,0.5,0.3,1.1,0.3,1.7c0,0.6-0.1,1.2-0.3,1.7c-0.2,0.5-0.5,1-0.9,1.4
				c-0.4,0.4-0.8,0.7-1.3,0.9C164.1,92.5,163.6,92.6,163,92.6z M163,85.4c-0.3,0-0.7,0.1-1,0.2c-0.3,0.1-0.6,0.3-0.8,0.6
				c-0.2,0.2-0.4,0.6-0.5,0.9c-0.1,0.3-0.2,0.7-0.2,1.1c0,0.4,0.1,0.8,0.2,1.1c0.1,0.3,0.3,0.7,0.5,0.9c0.2,0.3,0.5,0.5,0.8,0.6
				c0.3,0.1,0.6,0.2,1,0.2c0.3,0,0.7-0.1,1-0.2c0.3-0.2,0.6-0.4,0.8-0.6c0.2-0.3,0.4-0.6,0.5-0.9c0.1-0.3,0.2-0.7,0.2-1.1
				c0-0.4-0.1-0.8-0.2-1.1c-0.1-0.3-0.3-0.6-0.5-0.9c-0.2-0.3-0.5-0.5-0.8-0.6C163.6,85.5,163.3,85.4,163,85.4z"/>
		</g>
	</g>
</g>
<g>
	<g transform="translate(481.996655, 277.283677)">
		<g>
			<path d="M169.4,92.4h-2.1l-2.1-2.9l-2.1,2.9h-2l3.2-4.3l-2.9-4h2l1.9,2.6l1.9-2.6h2l-2.9,4L169.4,92.4z"/>
		</g>
	</g>
</g>
<g>
	<g transform="translate(488.728596, 277.283677)">
		<g>
			<path d="M167.5,92.6c-0.6,0-1.1-0.1-1.6-0.3c-0.5-0.2-0.9-0.5-1.3-0.9c-0.4-0.4-0.7-0.9-0.9-1.4c-0.2-0.5-0.3-1.1-0.3-1.7
				c0-0.6,0.1-1.2,0.3-1.7c0.2-0.5,0.5-1,0.9-1.4c0.4-0.4,0.8-0.7,1.3-0.9c0.5-0.2,1.1-0.4,1.6-0.4c0.6,0,1.1,0.1,1.6,0.4
				c0.5,0.2,1,0.5,1.3,0.9c0.4,0.4,0.7,0.9,0.9,1.4c0.2,0.5,0.3,1.1,0.3,1.7c0,0.6-0.1,1.2-0.3,1.7c-0.2,0.5-0.5,1-0.9,1.4
				c-0.4,0.4-0.8,0.7-1.3,0.9C168.6,92.5,168.1,92.6,167.5,92.6z M167.5,85.4c-0.3,0-0.7,0.1-1,0.2c-0.3,0.1-0.6,0.3-0.8,0.6
				c-0.2,0.2-0.4,0.6-0.5,0.9c-0.1,0.3-0.2,0.7-0.2,1.1c0,0.4,0.1,0.8,0.2,1.1c0.1,0.3,0.3,0.7,0.5,0.9c0.2,0.3,0.5,0.5,0.8,0.6
				c0.3,0.1,0.6,0.2,1,0.2c0.3,0,0.7-0.1,1-0.2c0.3-0.2,0.6-0.4,0.8-0.6c0.2-0.3,0.4-0.6,0.5-0.9c0.1-0.3,0.2-0.7,0.2-1.1
				c0-0.4-0.1-0.8-0.2-1.1c-0.1-0.3-0.3-0.6-0.5-0.9c-0.2-0.3-0.5-0.5-0.8-0.6C168.2,85.5,167.8,85.4,167.5,85.4z"/>
		</g>
	</g>
</g>
<g>
	<g transform="translate(495.590495, 277.283677)">
	</g>
</g>
<g>
	<g transform="translate(498.982455, 277.283677)">
		<g>
			<path d="M172.3,80.1c0.5,0,0.9,0.1,1.4,0.3c0.4,0.2,0.8,0.4,1.1,0.8c0.3,0.3,0.6,0.7,0.8,1.1c0.2,0.4,0.3,0.9,0.3,1.4
				c0,0.5-0.1,0.9-0.3,1.4c-0.2,0.4-0.4,0.8-0.8,1.1c-0.3,0.3-0.7,0.6-1.1,0.7c-0.4,0.2-0.9,0.3-1.4,0.3h-3.2v5.3h-1.8V80.1H172.3z
				 M172.3,85.4c0.2,0,0.5,0,0.7-0.1c0.2-0.1,0.4-0.2,0.6-0.4c0.2-0.2,0.3-0.4,0.4-0.6c0.1-0.2,0.1-0.5,0.1-0.7
				c0-0.3-0.1-0.5-0.1-0.7c-0.1-0.2-0.2-0.4-0.4-0.6c-0.2-0.2-0.3-0.3-0.6-0.4c-0.2-0.1-0.4-0.2-0.7-0.2h-3.2v3.7H172.3z"/>
		</g>
	</g>
</g>
<g>
	<g transform="translate(506.546141, 277.283677)">
		<g>
			<path d="M174.8,85.7c-0.1,0-0.2-0.1-0.2-0.1c-0.1,0-0.2,0-0.2-0.1c-0.1,0-0.2,0-0.3,0c-0.3,0-0.7,0.1-1,0.2
				c-0.3,0.1-0.5,0.2-0.7,0.4c-0.2,0.2-0.4,0.4-0.5,0.6s-0.2,0.5-0.2,0.8v4.9H170v-8.3h1.3l0.4,0.9c0.2-0.3,0.5-0.6,0.9-0.8
				c0.4-0.2,0.8-0.3,1.4-0.3c0.4,0,0.8,0.1,1.3,0.2L174.8,85.7z"/>
		</g>
	</g>
</g>
<g>
	<g transform="translate(511.458632, 277.283677)">
		<g>
			<path d="M175.1,92.6c-0.6,0-1.1-0.1-1.6-0.3c-0.5-0.2-0.9-0.5-1.3-0.9c-0.4-0.4-0.7-0.9-0.9-1.4c-0.2-0.5-0.3-1.1-0.3-1.7
				c0-0.6,0.1-1.2,0.3-1.7c0.2-0.5,0.5-1,0.9-1.4c0.4-0.4,0.8-0.7,1.3-0.9c0.5-0.2,1.1-0.4,1.6-0.4c0.6,0,1.1,0.1,1.6,0.4
				c0.5,0.2,1,0.5,1.3,0.9c0.4,0.4,0.7,0.9,0.9,1.4c0.2,0.5,0.3,1.1,0.3,1.7c0,0.6-0.1,1.2-0.3,1.7c-0.2,0.5-0.5,1-0.9,1.4
				c-0.4,0.4-0.8,0.7-1.3,0.9C176.2,92.5,175.7,92.6,175.1,92.6z M175.1,85.4c-0.3,0-0.7,0.1-1,0.2c-0.3,0.1-0.6,0.3-0.8,0.6
				c-0.2,0.2-0.4,0.6-0.5,0.9c-0.1,0.3-0.2,0.7-0.2,1.1c0,0.4,0.1,0.8,0.2,1.1c0.1,0.3,0.3,0.7,0.5,0.9c0.2,0.3,0.5,0.5,0.8,0.6
				c0.3,0.1,0.6,0.2,1,0.2s0.7-0.1,1-0.2c0.3-0.2,0.6-0.4,0.8-0.6c0.2-0.3,0.4-0.6,0.5-0.9c0.1-0.3,0.2-0.7,0.2-1.1
				c0-0.4-0.1-0.8-0.2-1.1c-0.1-0.3-0.3-0.6-0.5-0.9c-0.2-0.3-0.5-0.5-0.8-0.6C175.7,85.5,175.4,85.4,175.1,85.4z"/>
		</g>
	</g>
</g>
<g>
	<g transform="translate(518.320532, 277.283677)">
		<g>
			<path d="M174.9,92.4v-6.8h-1.4v-1.2l1.4-0.4v-1c0-0.6,0.1-1.1,0.2-1.5c0.2-0.4,0.4-0.8,0.6-1.1c0.3-0.3,0.6-0.5,0.9-0.6
				c0.3-0.1,0.7-0.2,1.1-0.2c0.5,0,0.9,0.1,1.4,0.3v1.2c-0.4-0.1-0.8-0.2-1.1-0.2c-0.5,0-0.8,0.1-1.1,0.4c-0.2,0.3-0.4,0.8-0.4,1.4
				v1.2h2.6v1.5h-2.6v6.8H174.9z"/>
		</g>
	</g>
</g>
<g>
	<g transform="translate(523.259024, 277.283677)">
		<g>
			<path d="M181,91.7c-0.3,0.3-0.6,0.5-1,0.7c-0.4,0.2-0.8,0.2-1.3,0.2c-0.3,0-0.7,0-1-0.1c-0.4-0.1-0.7-0.2-1.1-0.5
				c-0.3-0.3-0.6-0.6-0.8-1.1c-0.2-0.4-0.3-1-0.3-1.7v-5.1h1.6v5.1c0,0.3,0,0.6,0.1,0.9c0.1,0.2,0.3,0.5,0.4,0.6
				c0.2,0.2,0.4,0.3,0.6,0.3c0.2,0.1,0.5,0.1,0.7,0.1c0.2,0,0.4,0,0.6-0.1c0.2-0.1,0.5-0.2,0.7-0.3c0.2-0.2,0.4-0.4,0.5-0.6
				c0.2-0.2,0.2-0.5,0.2-0.9v-5.1h1.7v8.3h-1.3L181,91.7z"/>
		</g>
	</g>
</g>
<g>
	<g transform="translate(530.211893, 277.283677)">
		<g>
			<path d="M179.4,92.4h-1.7v-8.3h1.3l0.4,0.7c0.3-0.3,0.6-0.5,1-0.6c0.4-0.2,0.8-0.3,1.3-0.3c0.3,0,0.6,0.1,1,0.1
				c0.4,0.1,0.7,0.3,1.1,0.5c0.3,0.2,0.6,0.6,0.8,1.1c0.2,0.4,0.4,1,0.4,1.8v5h-1.6v-5c0-0.4-0.1-0.7-0.2-0.9
				c-0.1-0.2-0.2-0.4-0.4-0.6c-0.2-0.2-0.4-0.3-0.6-0.3c-0.2-0.1-0.5-0.1-0.7-0.1c-0.2,0-0.4,0-0.6,0.1c-0.2,0.1-0.5,0.2-0.7,0.3
				c-0.2,0.2-0.4,0.3-0.5,0.6c-0.1,0.2-0.2,0.5-0.2,0.9V92.4z"/>
		</g>
	</g>
</g>
<g>
	<g transform="translate(537.151761, 277.283677)">
		<g>
			<path d="M188,79.8v12.6h-1.3l-0.4-0.9c-0.3,0.3-0.7,0.6-1.1,0.8c-0.4,0.2-0.9,0.3-1.5,0.3c-0.6,0-1.1-0.1-1.6-0.3
				c-0.5-0.2-0.9-0.5-1.3-0.9c-0.4-0.4-0.6-0.9-0.9-1.4c-0.2-0.5-0.3-1.1-0.3-1.7c0-0.6,0.1-1.2,0.3-1.7c0.2-0.5,0.5-1,0.9-1.4
				c0.4-0.4,0.8-0.7,1.3-0.9c0.5-0.2,1-0.4,1.6-0.4c0.6,0,1.1,0.1,1.5,0.3c0.4,0.2,0.8,0.5,1.1,0.8v-5.2H188z M183.8,91.1
				c0.3,0,0.7-0.1,1-0.2c0.3-0.1,0.5-0.3,0.8-0.5c0.2-0.2,0.4-0.5,0.5-0.9c0.1-0.4,0.2-0.8,0.2-1.3c0-0.5-0.1-0.9-0.2-1.3
				c-0.1-0.4-0.3-0.7-0.5-0.9c-0.2-0.2-0.5-0.4-0.8-0.5c-0.3-0.1-0.6-0.1-1-0.1c-0.3,0-0.7,0.1-1,0.2c-0.3,0.1-0.6,0.3-0.8,0.6
				c-0.2,0.2-0.4,0.6-0.5,0.9c-0.1,0.3-0.2,0.7-0.2,1.1c0,0.4,0.1,0.8,0.2,1.1c0.1,0.3,0.3,0.7,0.5,0.9c0.2,0.3,0.5,0.5,0.8,0.6
				C183.1,91.1,183.5,91.1,183.8,91.1z"/>
		</g>
	</g>
</g>
<g>
	<g transform="translate(544.676457, 277.283677)">
		<g>
			<path d="M186.2,92.6c-0.6,0-1.1-0.1-1.6-0.3c-0.5-0.2-0.9-0.5-1.3-0.9c-0.4-0.4-0.7-0.9-0.9-1.4c-0.2-0.5-0.3-1.1-0.3-1.7
				c0-0.6,0.1-1.2,0.3-1.7c0.2-0.5,0.5-1,0.9-1.4c0.4-0.4,0.8-0.7,1.3-0.9c0.5-0.2,1.1-0.4,1.6-0.4c0.6,0,1.1,0.1,1.6,0.4
				c0.5,0.2,1,0.5,1.3,0.9c0.4,0.4,0.7,0.9,0.9,1.4c0.2,0.5,0.3,1.1,0.3,1.7c0,0.6-0.1,1.2-0.3,1.7c-0.2,0.5-0.5,1-0.9,1.4
				c-0.4,0.4-0.8,0.7-1.3,0.9C187.3,92.5,186.7,92.6,186.2,92.6z M186.2,85.4c-0.3,0-0.7,0.1-1,0.2c-0.3,0.1-0.6,0.3-0.8,0.6
				c-0.2,0.2-0.4,0.6-0.5,0.9c-0.1,0.3-0.2,0.7-0.2,1.1c0,0.4,0.1,0.8,0.2,1.1c0.1,0.3,0.3,0.7,0.5,0.9c0.2,0.3,0.5,0.5,0.8,0.6
				c0.3,0.1,0.6,0.2,1,0.2c0.3,0,0.7-0.1,1-0.2c0.3-0.2,0.6-0.4,0.8-0.6c0.2-0.3,0.4-0.6,0.5-0.9c0.1-0.3,0.2-0.7,0.2-1.1
				c0-0.4-0.1-0.8-0.2-1.1c-0.1-0.3-0.3-0.6-0.5-0.9c-0.2-0.3-0.5-0.5-0.8-0.6C186.8,85.5,186.5,85.4,186.2,85.4z"/>
		</g>
	</g>
</g>
<g>
	<g transform="translate(259.271417, 263.235153)">
		<g>
			<path d="M98,75.5h2.5v12.3h-2.6v-8.1l-2.9,4.1h-2.1l-3-4v8h-2.6V75.5h2.5l4.2,5.7L98,75.5z"/>
		</g>
	</g>
</g>
<g>
	<g transform="translate(270.422001, 263.235153)">
		<g>
			<path d="M91,75.5h7.7v2.4h-5.1v2.2H98v2.4h-4.4v2.9h5.1v2.4H91V75.5z"/>
		</g>
	</g>
</g>
<g>
	<g transform="translate(277.42685, 263.235153)">
		<g>
			<path d="M104.1,75.5h2.5v12.3h-2.6v-8.1l-2.9,4.1h-2.1l-3-4v8h-2.6V75.5h2.5l4.2,5.7L104.1,75.5z"/>
		</g>
	</g>
</g>
<g>
	<g transform="translate(288.577434, 263.235153)">
		<g>
			<path d="M102.8,75.3c0.8,0,1.6,0.2,2.4,0.5c0.7,0.3,1.4,0.8,1.9,1.4c0.6,0.6,1,1.2,1.3,2c0.3,0.8,0.5,1.6,0.5,2.4
				c0,0.9-0.2,1.7-0.5,2.5c-0.3,0.8-0.8,1.5-1.3,2c-0.5,0.6-1.2,1-1.9,1.4c-0.7,0.3-1.5,0.5-2.4,0.5c-0.8,0-1.6-0.2-2.4-0.5
				c-0.7-0.3-1.4-0.8-1.9-1.4c-0.5-0.6-1-1.3-1.3-2c-0.3-0.8-0.5-1.6-0.5-2.5c0-0.9,0.2-1.7,0.5-2.4c0.3-0.8,0.8-1.4,1.3-2
				c0.5-0.6,1.2-1,1.9-1.4C101.2,75.5,102,75.3,102.8,75.3z M102.8,85.3c0.5,0,0.9-0.1,1.3-0.3c0.4-0.2,0.8-0.5,1.1-0.8
				c0.3-0.3,0.6-0.7,0.8-1.2c0.2-0.5,0.3-0.9,0.3-1.5c0-0.5-0.1-1-0.3-1.5c-0.2-0.5-0.4-0.9-0.8-1.2c-0.3-0.3-0.7-0.6-1.1-0.8
				c-0.4-0.2-0.9-0.3-1.3-0.3c-0.5,0-0.9,0.1-1.3,0.3c-0.4,0.2-0.8,0.5-1.1,0.8c-0.3,0.3-0.6,0.7-0.7,1.2c-0.2,0.5-0.3,0.9-0.3,1.5
				c0,0.5,0.1,1,0.3,1.5c0.2,0.4,0.4,0.8,0.7,1.2c0.3,0.3,0.7,0.6,1.1,0.8C101.9,85.3,102.3,85.3,102.8,85.3z M104.3,71.5l-1.1,3.1
				h-1.8l0.2-3.1H104.3z"/>
		</g>
	</g>
</g>
<g>
	<g transform="translate(298.519386, 263.235153)">
		<g>
			<path d="M109.2,79.1c0,0.4-0.1,0.8-0.2,1.1c-0.1,0.3-0.2,0.7-0.5,1c-0.2,0.3-0.4,0.6-0.7,0.8c-0.3,0.2-0.6,0.4-0.9,0.5l4.1,5.2
				h-3.1l-3.8-5H103v5h-2.6V75.5h5.3c0.5,0,0.9,0.1,1.4,0.3c0.4,0.2,0.8,0.5,1.1,0.8c0.3,0.3,0.6,0.7,0.8,1.1
				C109.1,78.1,109.2,78.6,109.2,79.1z M105.3,80.4c0.3,0,0.6-0.1,0.9-0.4c0.2-0.2,0.4-0.5,0.4-0.9c0-0.3-0.1-0.6-0.4-0.9
				c-0.2-0.2-0.5-0.4-0.9-0.4H103v2.5H105.3z"/>
		</g>
	</g>
</g>
<g>
	<g transform="translate(307.447653, 263.235153)">
		<g>
			<path d="M107.8,75.5v2.2h-0.9v7.9h0.9v2.2h-4.5v-2.2h0.9v-7.9h-0.9v-2.2H107.8z"/>
		</g>
	</g>
</g>
<g>
	<g transform="translate(312.009257, 263.235153)">
		<g>
			<path d="M112.4,75.5l5.1,12.3h-2.8l-1.1-2.6h-5.2l-1.1,2.6h-2.9l5.1-12.3H112.4z M112.6,82.7l-1.6-3.9l-1.6,3.9H112.6z"/>
		</g>
	</g>
</g>
<g>
	<g transform="translate(322.419065, 263.235153)">
	</g>
</g>
<g>
	<g transform="translate(325.992975, 263.235153)">
		<g>
			<path d="M114,75.5v2.2H113v7.9h0.9v2.2h-4.5v-2.2h0.9v-7.9h-0.9v-2.2H114z"/>
		</g>
	</g>
</g>
<g>
	<g transform="translate(330.554578, 263.235153)">
		<g>
			<path d="M119.4,75.5h2.6v12.3h-2.5l-5.9-8v8H111V75.5h2.5l6,8.1V75.5z"/>
		</g>
	</g>
</g>
<g>
	<g transform="translate(340.041673, 263.235153)">
		<g>
			<path d="M113.7,75.5h8.9v2.4h-3.1v9.9h-2.6v-9.9h-3.1V75.5z"/>
		</g>
	</g>
</g>
<g>
	<g transform="translate(347.30645, 263.235153)">
		<g>
			<path d="M116.6,75.5h7.7v2.4h-5.1v2.2h4.4v2.4h-4.4v2.9h5.1v2.4h-7.7V75.5z"/>
		</g>
	</g>
</g>
<g>
	<g transform="translate(354.311299, 263.235153)">
		<g>
			<path d="M127.7,79.1c0,0.4-0.1,0.8-0.2,1.1c-0.1,0.3-0.2,0.7-0.5,1c-0.2,0.3-0.4,0.6-0.7,0.8c-0.3,0.2-0.6,0.4-0.9,0.5l4.1,5.2
				h-3.1l-3.8-5h-1.2v5h-2.6V75.5h5.3c0.5,0,0.9,0.1,1.4,0.3c0.4,0.2,0.8,0.5,1.1,0.8c0.3,0.3,0.6,0.7,0.8,1.1
				C127.7,78.1,127.7,78.6,127.7,79.1z M123.9,80.4c0.3,0,0.6-0.1,0.9-0.4c0.2-0.2,0.4-0.5,0.4-0.9c0-0.3-0.1-0.6-0.4-0.9
				c-0.2-0.2-0.5-0.4-0.9-0.4h-2.3v2.5H123.9z"/>
		</g>
	</g>
</g>
<g>
	<g transform="translate(363.239567, 263.235153)">
		<g>
			<path d="M130.3,75.5h2.6v12.3h-2.5l-5.9-8v8h-2.6V75.5h2.5l6,8.1V75.5z"/>
		</g>
	</g>
</g>
<g>
	<g transform="translate(372.726661, 263.235153)">
		<g>
			<path d="M132.6,75.5l5.1,12.3h-2.8l-1.1-2.6h-5.2l-1.1,2.6h-2.9l5.1-12.3H132.6z M132.8,82.7l-1.6-3.9l-1.6,3.9H132.8z"/>
		</g>
	</g>
</g>
<g>
	<g transform="translate(261.205011, 277.283677)">
		<g>
			<path d="M89.2,81.8h-1.6v-1.6H91v12.3h-1.8V81.8z"/>
		</g>
	</g>
</g>
<g>
	<g transform="translate(265.090817, 277.283677)">
		<g>
			<path d="M89.1,92.4v-1.2l3.5-4c0.5-0.6,0.9-1.1,1.2-1.5c0.3-0.4,0.6-0.6,0.7-0.9c0.2-0.2,0.3-0.4,0.3-0.6c0-0.2,0.1-0.4,0.1-0.6
				c0-0.6-0.2-1.1-0.6-1.5c-0.4-0.3-0.8-0.5-1.4-0.5c-0.3,0-0.5,0.1-0.8,0.2c-0.2,0.1-0.4,0.3-0.6,0.5c-0.2,0.2-0.3,0.4-0.4,0.6
				c-0.1,0.2-0.1,0.5-0.1,0.7h-1.8c0-0.5,0.1-1,0.3-1.4c0.2-0.4,0.5-0.8,0.8-1.2c0.3-0.3,0.7-0.6,1.2-0.8c0.5-0.2,0.9-0.3,1.5-0.3
				c0.5,0,1,0.1,1.5,0.3c0.5,0.2,0.9,0.5,1.2,0.8c0.3,0.3,0.6,0.7,0.8,1.2c0.2,0.4,0.3,0.9,0.3,1.4c0,0.4-0.1,0.7-0.1,1.1
				c-0.1,0.3-0.3,0.7-0.5,0.9l-4.4,5.1h5.2v1.7H89.1z"/>
		</g>
	</g>
</g>
<g>
	<g transform="translate(272.251626, 277.283677)">
		<g>
			<path d="M91.3,88.7c0-0.6,0.1-1.2,0.4-1.7c0.3-0.5,0.7-0.9,1.2-1.2c-0.4-0.3-0.7-0.7-0.8-1c-0.2-0.4-0.2-0.8-0.2-1.3
				c0-0.5,0.1-0.9,0.2-1.3c0.2-0.4,0.4-0.8,0.7-1.1c0.3-0.3,0.7-0.6,1.1-0.8c0.4-0.2,0.9-0.3,1.3-0.3c0.5,0,0.9,0.1,1.3,0.3
				c0.4,0.2,0.8,0.4,1.1,0.8c0.3,0.3,0.6,0.7,0.8,1.1c0.2,0.4,0.3,0.9,0.3,1.3c0,0.4-0.1,0.9-0.3,1.3c-0.2,0.4-0.5,0.7-0.8,1
				c0.2,0.1,0.4,0.3,0.6,0.5c0.2,0.2,0.4,0.4,0.5,0.7c0.1,0.2,0.2,0.5,0.3,0.8c0.1,0.3,0.1,0.6,0.1,0.9c0,0.5-0.1,1.1-0.3,1.5
				c-0.2,0.5-0.5,0.9-0.9,1.2c-0.4,0.3-0.8,0.6-1.3,0.8c-0.5,0.2-1,0.3-1.5,0.3c-0.5,0-1-0.1-1.5-0.3c-0.5-0.2-0.9-0.5-1.2-0.8
				c-0.4-0.4-0.6-0.8-0.9-1.2C91.4,89.7,91.3,89.2,91.3,88.7z M95.2,81.7c-0.2,0-0.4,0.1-0.6,0.1c-0.2,0.1-0.4,0.2-0.5,0.4
				c-0.2,0.2-0.3,0.4-0.4,0.6c-0.1,0.2-0.1,0.4-0.1,0.6c0,0.3,0.1,0.6,0.2,0.9c0.2,0.3,0.4,0.5,0.6,0.6c0.2,0.1,0.5,0.2,0.7,0.2
				c0.3,0,0.5-0.1,0.8-0.2c0.3-0.1,0.5-0.3,0.6-0.6c0.2-0.3,0.2-0.6,0.2-0.9c0-0.2,0-0.4-0.1-0.6c-0.1-0.2-0.2-0.4-0.4-0.6
				c-0.1-0.2-0.3-0.3-0.5-0.4C95.7,81.7,95.4,81.7,95.2,81.7z M94.4,86.7c-0.4,0.2-0.7,0.4-0.9,0.8c-0.2,0.3-0.4,0.7-0.4,1.2
				c0,0.3,0.1,0.6,0.2,0.8c0.1,0.3,0.3,0.5,0.4,0.7c0.2,0.2,0.4,0.4,0.6,0.5c0.3,0.1,0.5,0.2,0.8,0.2c0.3,0,0.6-0.1,0.8-0.2
				c0.3-0.1,0.5-0.3,0.7-0.5c0.2-0.2,0.3-0.4,0.4-0.7c0.1-0.3,0.2-0.5,0.2-0.8c0-0.4-0.1-0.8-0.4-1.2c-0.2-0.4-0.5-0.6-0.9-0.8
				c-0.3-0.1-0.5-0.1-0.8-0.1C94.9,86.6,94.7,86.6,94.4,86.7z"/>
		</g>
	</g>
</g>
<g>
	<g transform="translate(278.944576, 277.283677)">
		<g>
			<path d="M100.8,85.9h3.4v4.5c-0.6,0.7-1.2,1.2-2,1.6c-0.8,0.4-1.6,0.6-2.6,0.6c-0.8,0-1.6-0.2-2.4-0.5c-0.7-0.3-1.4-0.8-1.9-1.4
				c-0.5-0.6-1-1.2-1.3-2c-0.3-0.8-0.5-1.6-0.5-2.5c0-0.8,0.2-1.7,0.5-2.4c0.3-0.8,0.8-1.4,1.3-2c0.6-0.6,1.2-1,1.9-1.4
				c0.7-0.3,1.5-0.5,2.4-0.5c0.8,0,1.5,0.2,2.2,0.5c0.7,0.3,1.3,0.7,1.8,1.2l-1.1,1.4c-0.4-0.4-0.8-0.7-1.3-1
				c-0.5-0.2-1-0.4-1.6-0.4c-0.6,0-1.1,0.1-1.6,0.4c-0.5,0.2-1,0.6-1.4,1c-0.4,0.4-0.7,0.9-0.9,1.5c-0.2,0.6-0.3,1.1-0.3,1.8
				c0,0.6,0.1,1.2,0.3,1.8c0.2,0.6,0.5,1.1,0.9,1.5c0.4,0.4,0.8,0.8,1.4,1c0.5,0.2,1.1,0.4,1.6,0.4c0.5,0,1-0.1,1.5-0.3
				c0.5-0.2,0.9-0.5,1.3-0.9v-2.2h-1.6V85.9z"/>
		</g>
	</g>
</g>
<g>
	<g transform="translate(288.171753, 277.283677)">
		<g>
			<path d="M105.7,89c0,0.5-0.1,0.9-0.3,1.3c-0.2,0.4-0.4,0.8-0.7,1.1c-0.3,0.3-0.7,0.6-1.1,0.7c-0.4,0.2-0.9,0.3-1.3,0.3H97V80.1
				h4.8c0.4,0,0.8,0.1,1.2,0.2c0.4,0.2,0.7,0.4,1,0.6c0.3,0.3,0.5,0.6,0.6,1c0.2,0.4,0.2,0.8,0.2,1.2c0,0.5-0.1,1-0.2,1.5
				c-0.2,0.4-0.5,0.8-0.9,1.1c0.7,0.2,1.2,0.6,1.5,1.2C105.6,87.6,105.7,88.3,105.7,89z M98.8,85.1c0.5,0,0.9,0,1.3,0h1.7
				c0.4,0,0.8-0.2,1.1-0.5c0.3-0.3,0.5-0.7,0.5-1.2c0-0.5-0.2-0.9-0.5-1.2c-0.3-0.3-0.7-0.5-1.1-0.5h-3V85.1z M98.8,90.7
				c0.1,0,0.3,0,0.5,0h2.9c0.2,0,0.5,0,0.7-0.1c0.2-0.1,0.4-0.3,0.6-0.4c0.2-0.2,0.3-0.4,0.4-0.6c0.1-0.2,0.1-0.5,0.1-0.8
				c0-0.3-0.1-0.5-0.1-0.8c-0.1-0.2-0.2-0.4-0.4-0.6c-0.2-0.2-0.3-0.3-0.6-0.4c-0.2-0.1-0.4-0.2-0.7-0.2h-3.5V90.7z"/>
		</g>
	</g>
</g>
<g>
	<g transform="translate(259.271417, 344.215433)">
		<g>
			<path class="st6" d="M92.4,102.4c0.5,0,0.9,0.1,1.4,0.3c0.4,0.2,0.8,0.4,1.1,0.8c0.3,0.3,0.6,0.7,0.8,1.1
				c0.2,0.4,0.3,0.9,0.3,1.4c0,0.5-0.1,0.9-0.3,1.4c-0.2,0.4-0.4,0.8-0.8,1.1c-0.3,0.3-0.7,0.6-1.1,0.7c-0.4,0.2-0.9,0.3-1.4,0.3
				h-3.2v5.3h-1.8v-12.3H92.4z M92.4,107.7c0.2,0,0.5,0,0.7-0.1c0.2-0.1,0.4-0.2,0.6-0.4c0.2-0.2,0.3-0.4,0.4-0.6
				c0.1-0.2,0.1-0.5,0.1-0.7c0-0.3-0.1-0.5-0.1-0.7c-0.1-0.2-0.2-0.4-0.4-0.6c-0.2-0.2-0.3-0.3-0.6-0.4c-0.2-0.1-0.4-0.2-0.7-0.2
				h-3.2v3.7H92.4z"/>
		</g>
	</g>
</g>
<g>
	<g transform="translate(266.835103, 344.215433)">
		<g>
			<path class="st6" d="M91.1,114.7h-2l5.1-12.3h2l5.1,12.3h-2l-1.6-3.9h-5.1L91.1,114.7z M93.4,109.2h3.7l-1.8-4.4L93.4,109.2z"/>
		</g>
	</g>
</g>
<g>
	<g transform="translate(276.348187, 344.215433)">
		<g>
			<path class="st6" d="M103.2,114.7h-2.3l-3.9-5.3h-2.1v5.3h-1.8v-12.3h5c0.5,0,0.9,0.1,1.4,0.3c0.4,0.2,0.8,0.4,1.1,0.8
				c0.3,0.3,0.6,0.7,0.8,1.1c0.2,0.4,0.3,0.9,0.3,1.4c0,0.4-0.1,0.8-0.2,1.1c-0.1,0.4-0.3,0.7-0.5,1c-0.2,0.3-0.5,0.5-0.8,0.8
				c-0.3,0.2-0.6,0.4-1,0.5L103.2,114.7z M98.1,107.7c0.2,0,0.5,0,0.7-0.1c0.2-0.1,0.4-0.2,0.6-0.4c0.2-0.2,0.3-0.4,0.4-0.6
				c0.1-0.2,0.1-0.5,0.1-0.7c0-0.3-0.1-0.5-0.1-0.7c-0.1-0.2-0.2-0.4-0.4-0.6c-0.2-0.2-0.3-0.3-0.6-0.4c-0.2-0.1-0.5-0.2-0.7-0.2
				h-3.2v3.7L98.1,107.7z"/>
		</g>
	</g>
</g>
<g>
	<g transform="translate(284.873577, 344.215433)">
		<g>
			<path class="st6" d="M98.4,104.1H95v-1.6h8.5v1.6h-3.4v10.7h-1.8V104.1z"/>
		</g>
	</g>
</g>
<g>
	<g transform="translate(291.657497, 344.215433)">
		<g>
			<path class="st6" d="M101.5,103.9v9.3h0.9v1.5h-3.6v-1.5h0.9v-9.3h-0.9v-1.5h3.6v1.5H101.5z"/>
		</g>
	</g>
</g>
<g>
	<g transform="translate(296.764926, 344.215433)">
		<g>
			<path class="st6" d="M105.7,113.2c0.7,0,1.3-0.2,1.9-0.5c0.6-0.3,1-0.8,1.4-1.3l1.3,1.2c-0.6,0.7-1.2,1.2-2,1.6
				c-0.8,0.4-1.6,0.6-2.6,0.6c-0.8,0-1.6-0.2-2.4-0.5c-0.7-0.3-1.4-0.8-1.9-1.4c-0.5-0.6-1-1.2-1.3-2c-0.3-0.8-0.5-1.6-0.5-2.5
				c0-0.9,0.2-1.7,0.5-2.4c0.3-0.8,0.8-1.4,1.3-2c0.5-0.6,1.2-1,1.9-1.4c0.8-0.3,1.5-0.5,2.4-0.5c0.8,0,1.5,0.2,2.2,0.5
				c0.7,0.3,1.3,0.7,1.9,1.2l-1.1,1.4c-0.4-0.4-0.8-0.7-1.4-1c-0.5-0.3-1-0.4-1.6-0.4s-1.1,0.1-1.6,0.4c-0.5,0.2-1,0.6-1.4,1
				c-0.4,0.4-0.7,0.9-0.9,1.5c-0.2,0.6-0.3,1.1-0.3,1.8c0,0.6,0.1,1.2,0.3,1.8c0.2,0.6,0.5,1.1,0.9,1.5c0.4,0.4,0.8,0.8,1.4,1
				C104.5,113.1,105.1,113.2,105.7,113.2z"/>
		</g>
	</g>
</g>
<g>
	<g transform="translate(305.680194, 344.215433)">
		<g>
			<path class="st6" d="M106.2,103.9v9.3h0.9v1.5h-3.6v-1.5h0.9v-9.3h-0.9v-1.5h3.6v1.5H106.2z"/>
		</g>
	</g>
</g>
<g>
	<g transform="translate(310.787623, 344.215433)">
		<g>
			<path class="st6" d="M109.5,102.4c0.5,0,0.9,0.1,1.4,0.3c0.4,0.2,0.8,0.4,1.1,0.8c0.3,0.3,0.6,0.7,0.8,1.1
				c0.2,0.4,0.3,0.9,0.3,1.4c0,0.5-0.1,0.9-0.3,1.4c-0.2,0.4-0.4,0.8-0.8,1.1c-0.3,0.3-0.7,0.6-1.1,0.7c-0.4,0.2-0.9,0.3-1.4,0.3
				h-3.2v5.3h-1.8v-12.3H109.5z M109.5,107.7c0.2,0,0.5,0,0.7-0.1c0.2-0.1,0.4-0.2,0.6-0.4c0.2-0.2,0.3-0.4,0.4-0.6
				c0.1-0.2,0.1-0.5,0.1-0.7c0-0.3-0.1-0.5-0.1-0.7c-0.1-0.2-0.2-0.4-0.4-0.6c-0.2-0.2-0.3-0.3-0.6-0.4c-0.2-0.1-0.4-0.2-0.7-0.2
				h-3.2v3.7H109.5z"/>
		</g>
	</g>
</g>
<g>
	<g transform="translate(318.351309, 344.215433)">
		<g>
			<path class="st6" d="M108.3,114.7h-2l5.1-12.3h2l5.1,12.3h-2l-1.6-3.9h-5.1L108.3,114.7z M110.6,109.2h3.7l-1.8-4.4L110.6,109.2z
				"/>
		</g>
	</g>
</g>
<g>
	<g transform="translate(327.864393, 344.215433)">
		<g>
			<path class="st6" d="M120.9,102.4v12.3H119l-6.9-9.4v9.4h-1.9v-12.3h1.9l6.9,9.5v-9.5H120.9z"/>
		</g>
	</g>
</g>
<g>
	<g transform="translate(337.286508, 344.215433)">
		<g>
			<path class="st6" d="M115.8,104.1h-3.3v-1.6h8.5v1.6h-3.4v10.7h-1.8V104.1z"/>
		</g>
	</g>
</g>
<g>
	<g transform="translate(344.070428, 344.215433)">
		<g>
			<path class="st6" d="M123.2,102.4v1.6h-5.7v3.4h5.1v1.7h-5.1v3.9h5.7v1.7h-7.5v-12.3H123.2z"/>
		</g>
	</g>
</g>
<g>
	<g transform="translate(351.205246, 344.215433)">
		<g>
			<path class="st6" d="M119.5,109.5c-0.3,0-0.5-0.1-0.8-0.3c-0.2-0.2-0.3-0.5-0.3-0.8c0-0.3,0.1-0.6,0.3-0.8
				c0.2-0.2,0.5-0.3,0.8-0.3c0.3,0,0.6,0.1,0.8,0.3c0.2,0.2,0.3,0.5,0.3,0.8c0,0.3-0.1,0.5-0.3,0.8
				C120.1,109.4,119.8,109.5,119.5,109.5z M118.4,113.8c0-0.3,0.1-0.6,0.3-0.8c0.2-0.2,0.5-0.3,0.8-0.3c0.3,0,0.6,0.1,0.8,0.3
				c0.2,0.2,0.3,0.5,0.3,0.8c0,0.3-0.1,0.5-0.3,0.8c-0.2,0.2-0.5,0.3-0.8,0.3c-0.3,0-0.5-0.1-0.8-0.3
				C118.5,114.4,118.4,114.1,118.4,113.8z"/>
		</g>
	</g>
</g>
<g>
	<g transform="translate(259.271417, 374.590432)">
		<g>
			<path class="st6" d="M89.8,114.2h-3.3v-1.6H95v1.6h-3.4v10.7h-1.8V114.2z"/>
		</g>
	</g>
</g>
<g>
	<g transform="translate(266.055337, 374.590432)">
		<g>
			<path class="st6" d="M97.2,112.6v1.6h-5.7v3.4h5.1v1.7h-5.1v3.9h5.7v1.7h-7.5v-12.3H97.2z"/>
		</g>
	</g>
</g>
<g>
	<g transform="translate(273.190155, 374.590432)">
		<g>
			<path class="st6" d="M92.1,124.9v-12.3h1.8v10.6h5.7v1.7H92.1z"/>
		</g>
	</g>
</g>
<g>
	<g transform="translate(279.857117, 374.590432)">
		<g>
			<path class="st6" d="M101.8,112.6v1.6h-5.7v3.4h5.1v1.7h-5.1v3.9h5.7v1.7h-7.5v-12.3H101.8z"/>
		</g>
	</g>
</g>
<g>
	<g transform="translate(286.991935, 374.590432)">
		<g>
			<path class="st6" d="M104.9,112.6v1.6h-6.5v3.4h5.9v1.7h-5.9v5.6h-1.8v-12.3H104.9z"/>
		</g>
	</g>
</g>
<g>
	<g transform="translate(294.009784, 374.590432)">
		<g>
			<path class="st6" d="M104.7,112.4c0.8,0,1.6,0.2,2.4,0.5c0.8,0.3,1.4,0.8,1.9,1.4c0.6,0.6,1,1.2,1.3,2c0.3,0.8,0.5,1.6,0.5,2.4
				c0,0.9-0.2,1.7-0.5,2.4c-0.3,0.8-0.8,1.4-1.3,2c-0.6,0.6-1.2,1-2,1.4c-0.7,0.3-1.5,0.5-2.4,0.5c-0.8,0-1.6-0.2-2.4-0.5
				c-0.7-0.3-1.4-0.8-1.9-1.4c-0.5-0.6-1-1.2-1.3-2c-0.3-0.8-0.5-1.6-0.5-2.4c0-0.9,0.2-1.7,0.5-2.4c0.3-0.8,0.8-1.4,1.3-2
				c0.6-0.6,1.2-1,1.9-1.4C103.1,112.6,103.8,112.4,104.7,112.4z M104.7,123.3c0.6,0,1.2-0.1,1.7-0.4c0.5-0.2,1-0.6,1.3-1
				c0.4-0.4,0.7-0.9,0.9-1.5c0.2-0.6,0.3-1.2,0.3-1.8c0-0.6-0.1-1.2-0.3-1.8c-0.2-0.6-0.5-1-0.9-1.5c-0.4-0.4-0.8-0.7-1.3-1
				c-0.5-0.2-1.1-0.4-1.7-0.4c-0.6,0-1.1,0.1-1.6,0.4c-0.5,0.2-1,0.6-1.4,1c-0.4,0.4-0.7,0.9-0.9,1.5c-0.2,0.6-0.3,1.2-0.3,1.8
				c0,0.6,0.1,1.2,0.3,1.8c0.2,0.6,0.5,1,0.9,1.5c0.4,0.4,0.8,0.7,1.4,1C103.5,123.2,104.1,123.3,104.7,123.3z"/>
		</g>
	</g>
</g>
<g>
	<g transform="translate(303.977725, 374.590432)">
		<g>
			<path class="st6" d="M112.9,112.6v12.3h-1.8l-6.9-9.4v9.4h-1.9v-12.3h1.9l6.9,9.5v-9.5H112.9z"/>
		</g>
	</g>
</g>
<g>
	<g transform="translate(313.39984, 374.590432)">
		<g>
			<path class="st6" d="M112.9,112.6v1.6h-5.7v3.4h5.1v1.7h-5.1v3.9h5.7v1.7h-7.5v-12.3H112.9z"/>
		</g>
	</g>
</g>
<g>
	<g transform="translate(436.332429, 370.840432)">
		<g>
			<path class="st6" d="M146.5,123.6v-12.3h4.4c0.9,0,1.7,0.2,2.4,0.5c0.7,0.3,1.2,0.8,1.7,1.3c0.5,0.6,0.8,1.2,1,2
				c0.2,0.8,0.4,1.5,0.4,2.4c0,0.9-0.1,1.7-0.4,2.4c-0.2,0.7-0.6,1.4-1,1.9c-0.4,0.6-1,1-1.6,1.3c-0.6,0.3-1.2,0.5-1.9,0.5H146.5z
				 M150.8,121.9c0.7,0,1.2-0.1,1.7-0.4c0.5-0.2,0.8-0.6,1.1-1c0.3-0.4,0.5-0.9,0.6-1.4c0.1-0.5,0.2-1.1,0.2-1.7
				c0-0.6-0.1-1.1-0.2-1.7c-0.1-0.6-0.3-1-0.6-1.5c-0.3-0.4-0.7-0.8-1.1-1c-0.5-0.2-1-0.4-1.7-0.4h-2.5v9H150.8z"/>
		</g>
	</g>
</g>
<g>
	<g transform="translate(445.143727, 370.840432)">
		<g>
			<path class="st6" d="M150.5,123.6h-2l5.1-12.3h2l5.1,12.3h-2l-1.6-3.9h-5.1L150.5,123.6z M152.8,118.1h3.7l-1.8-4.4L152.8,118.1z
				"/>
		</g>
	</g>
</g>
<g>
	<g transform="translate(454.656811, 370.840432)">
		<g>
			<path class="st6" d="M155,112.9h-3.3v-1.6h8.5v1.6h-3.4v10.7H155V112.9z"/>
		</g>
	</g>
</g>
<g>
	<g transform="translate(461.440731, 370.840432)">
		<g>
			<path class="st6" d="M156,123.6h-2l5.1-12.3h2l5.1,12.3h-2l-1.6-3.9h-5.1L156,123.6z M158.3,118.1h3.7l-1.8-4.4L158.3,118.1z"/>
		</g>
	</g>
</g>
<g>
	<g transform="translate(470.953815, 370.840432)">
	</g>
</g>
<g>
	<g transform="translate(474.345775, 370.840432)">
		<g>
			<path class="st6" d="M159.2,123.6v-12.3h4.4c0.9,0,1.7,0.2,2.4,0.5c0.7,0.3,1.2,0.8,1.7,1.3c0.5,0.6,0.8,1.2,1,2
				c0.2,0.8,0.4,1.5,0.4,2.4c0,0.9-0.1,1.7-0.4,2.4c-0.2,0.7-0.6,1.4-1,1.9c-0.4,0.6-1,1-1.6,1.3c-0.6,0.3-1.2,0.5-1.9,0.5H159.2z
				 M163.4,121.9c0.7,0,1.2-0.1,1.7-0.4c0.5-0.2,0.8-0.6,1.1-1c0.3-0.4,0.5-0.9,0.6-1.4c0.1-0.5,0.2-1.1,0.2-1.7
				c0-0.6-0.1-1.1-0.2-1.7c-0.1-0.6-0.3-1-0.6-1.5c-0.3-0.4-0.7-0.8-1.1-1c-0.5-0.2-1-0.4-1.7-0.4H161v9H163.4z"/>
		</g>
	</g>
</g>
<g>
	<g transform="translate(483.157073, 370.840432)">
		<g>
			<path class="st6" d="M167.7,111.2c0.8,0,1.6,0.2,2.4,0.5c0.8,0.3,1.4,0.8,1.9,1.4c0.6,0.6,1,1.2,1.3,2c0.3,0.8,0.5,1.6,0.5,2.4
				c0,0.9-0.2,1.7-0.5,2.4c-0.3,0.8-0.8,1.4-1.3,2c-0.6,0.6-1.2,1-2,1.4c-0.7,0.3-1.5,0.5-2.4,0.5c-0.8,0-1.6-0.2-2.4-0.5
				c-0.7-0.3-1.4-0.8-1.9-1.4c-0.5-0.6-1-1.2-1.3-2c-0.3-0.8-0.5-1.6-0.5-2.4c0-0.9,0.2-1.7,0.5-2.4c0.3-0.8,0.8-1.4,1.3-2
				c0.6-0.6,1.2-1,1.9-1.4C166.1,111.3,166.9,111.2,167.7,111.2z M167.7,122.1c0.6,0,1.2-0.1,1.7-0.4c0.5-0.2,1-0.6,1.3-1
				c0.4-0.4,0.7-0.9,0.9-1.5c0.2-0.6,0.3-1.2,0.3-1.8c0-0.6-0.1-1.2-0.3-1.8c-0.2-0.6-0.5-1-0.9-1.5c-0.4-0.4-0.8-0.7-1.3-1
				c-0.5-0.2-1.1-0.4-1.7-0.4c-0.6,0-1.1,0.1-1.6,0.4c-0.5,0.2-1,0.6-1.4,1c-0.4,0.4-0.7,0.9-0.9,1.5c-0.2,0.6-0.3,1.2-0.3,1.8
				c0,0.6,0.1,1.2,0.3,1.8c0.2,0.6,0.5,1,0.9,1.5c0.4,0.4,0.8,0.7,1.4,1C166.6,121.9,167.1,122.1,167.7,122.1z"/>
		</g>
	</g>
</g>
<g>
	<g transform="translate(493.125014, 370.840432)">
	</g>
</g>
<g>
	<g transform="translate(496.516974, 370.840432)">
		<g>
			<path class="st6" d="M174.7,120.2c0,0.5-0.1,1-0.3,1.5c-0.2,0.4-0.5,0.8-0.9,1.2c-0.8,0.7-1.8,1-3.1,1c-1,0-1.9-0.2-2.6-0.6
				c-0.8-0.4-1.4-0.9-1.7-1.6l1.5-0.8c0.2,0.4,0.6,0.7,1.1,1c0.5,0.2,1.1,0.3,1.7,0.3c1.7,0,2.5-0.6,2.5-1.9c0-0.2,0-0.4-0.1-0.6
				c-0.1-0.2-0.2-0.3-0.4-0.5c-0.4-0.3-1.1-0.7-2.2-0.9c-0.6-0.2-1.2-0.3-1.6-0.5c-0.4-0.2-0.8-0.4-1.1-0.7
				c-0.7-0.6-1.1-1.4-1.1-2.3c0-0.5,0.1-0.9,0.3-1.4c0.2-0.4,0.5-0.8,0.8-1.1c0.4-0.3,0.8-0.6,1.2-0.7c0.5-0.2,1-0.2,1.6-0.2
				c0.8,0,1.6,0.2,2.3,0.5c0.7,0.3,1.3,0.8,1.6,1.4l-1.4,0.9c-0.3-0.4-0.7-0.7-1.2-0.9c-0.4-0.2-0.9-0.2-1.4-0.2
				c-0.3,0-0.6,0.1-0.9,0.2c-0.3,0.1-0.5,0.2-0.7,0.4c-0.2,0.1-0.3,0.3-0.4,0.5c-0.1,0.2-0.1,0.4-0.1,0.6c0,0.2,0,0.3,0.1,0.5
				c0.1,0.2,0.2,0.3,0.3,0.5c0.2,0.2,0.4,0.3,0.8,0.5c0.3,0.2,0.8,0.3,1.4,0.5c0.7,0.2,1.3,0.4,1.8,0.6c0.5,0.2,0.9,0.4,1.2,0.7
				C174.3,118.3,174.7,119.1,174.7,120.2z"/>
		</g>
	</g>
</g>
<g>
	<g transform="translate(504.054659, 370.840432)">
		<g>
			<path class="st6" d="M174.7,111.2c0.8,0,1.6,0.2,2.4,0.5c0.8,0.3,1.4,0.8,1.9,1.4c0.6,0.6,1,1.2,1.3,2c0.3,0.8,0.5,1.6,0.5,2.4
				c0,0.9-0.2,1.7-0.5,2.4c-0.3,0.8-0.8,1.4-1.3,2c-0.6,0.6-1.2,1-2,1.4c-0.7,0.3-1.5,0.5-2.4,0.5c-0.8,0-1.6-0.2-2.4-0.5
				c-0.7-0.3-1.4-0.8-1.9-1.4c-0.5-0.6-1-1.2-1.3-2c-0.3-0.8-0.5-1.6-0.5-2.4c0-0.9,0.2-1.7,0.5-2.4c0.3-0.8,0.8-1.4,1.3-2
				c0.6-0.6,1.2-1,1.9-1.4C173.1,111.3,173.9,111.2,174.7,111.2z M174.7,122.1c0.6,0,1.2-0.1,1.7-0.4c0.5-0.2,1-0.6,1.3-1
				c0.4-0.4,0.7-0.9,0.9-1.5c0.2-0.6,0.3-1.2,0.3-1.8c0-0.6-0.1-1.2-0.3-1.8c-0.2-0.6-0.5-1-0.9-1.5c-0.4-0.4-0.8-0.7-1.3-1
				c-0.5-0.2-1.1-0.4-1.7-0.4c-0.6,0-1.1,0.1-1.6,0.4c-0.5,0.2-1,0.6-1.4,1c-0.4,0.4-0.7,0.9-0.9,1.5c-0.2,0.6-0.3,1.2-0.3,1.8
				c0,0.6,0.1,1.2,0.3,1.8c0.2,0.6,0.5,1,0.9,1.5c0.4,0.4,0.8,0.7,1.4,1C173.5,121.9,174.1,122.1,174.7,122.1z"/>
		</g>
	</g>
</g>
<g>
	<g transform="translate(514.022599, 370.840432)">
		<g>
			<path class="st6" d="M182.4,123.6h-2.3l-3.9-5.3h-2.1v5.3h-1.8v-12.3h5c0.5,0,0.9,0.1,1.4,0.3c0.4,0.2,0.8,0.4,1.1,0.8
				c0.3,0.3,0.6,0.7,0.8,1.1c0.2,0.4,0.3,0.9,0.3,1.4c0,0.4-0.1,0.8-0.2,1.1c-0.1,0.4-0.3,0.7-0.5,1c-0.2,0.3-0.5,0.5-0.8,0.8
				c-0.3,0.2-0.6,0.4-1,0.5L182.4,123.6z M177.3,116.6c0.2,0,0.5,0,0.7-0.1c0.2-0.1,0.4-0.2,0.6-0.4c0.2-0.2,0.3-0.4,0.4-0.6
				c0.1-0.2,0.1-0.5,0.1-0.7c0-0.3-0.1-0.5-0.1-0.7c-0.1-0.2-0.2-0.4-0.4-0.6c-0.2-0.2-0.3-0.3-0.6-0.4c-0.2-0.1-0.5-0.2-0.7-0.2
				h-3.2v3.7L177.3,116.6z"/>
		</g>
	</g>
</g>
<g>
	<g transform="translate(522.54799, 370.840432)">
		<g>
			<path class="st6" d="M177.6,112.9h-3.3v-1.6h8.5v1.6h-3.4v10.7h-1.8V112.9z"/>
		</g>
	</g>
</g>
<g>
	<g transform="translate(529.33191, 370.840432)">
		<g>
			<path class="st6" d="M184.9,111.3v1.6h-5.7v3.4h5.1v1.7h-5.1v3.9h5.7v1.7h-7.5v-12.3H184.9z"/>
		</g>
	</g>
</g>
<g>
	<g transform="translate(536.466728, 370.840432)">
		<g>
			<path class="st6" d="M183.1,112.8v9.3h0.9v1.5h-3.6v-1.5h0.9v-9.3h-0.9v-1.5h3.6v1.5H183.1z"/>
		</g>
	</g>
</g>
<g>
	<g transform="translate(541.574157, 370.840432)">
		<g>
			<path class="st6" d="M187.2,111.2c0.8,0,1.6,0.2,2.4,0.5c0.8,0.3,1.4,0.8,1.9,1.4c0.6,0.6,1,1.2,1.3,2c0.3,0.8,0.5,1.6,0.5,2.4
				c0,0.9-0.2,1.7-0.5,2.4c-0.3,0.8-0.8,1.4-1.3,2c-0.6,0.6-1.2,1-2,1.4c-0.7,0.3-1.5,0.5-2.4,0.5c-0.8,0-1.6-0.2-2.4-0.5
				c-0.7-0.3-1.4-0.8-1.9-1.4c-0.5-0.6-1-1.2-1.3-2c-0.3-0.8-0.5-1.6-0.5-2.4c0-0.9,0.2-1.7,0.5-2.4c0.3-0.8,0.8-1.4,1.3-2
				c0.6-0.6,1.2-1,1.9-1.4C185.6,111.3,186.4,111.2,187.2,111.2z M187.2,122.1c0.6,0,1.2-0.1,1.7-0.4c0.5-0.2,1-0.6,1.3-1
				c0.4-0.4,0.7-0.9,0.9-1.5c0.2-0.6,0.3-1.2,0.3-1.8c0-0.6-0.1-1.2-0.3-1.8c-0.2-0.6-0.5-1-0.9-1.5c-0.4-0.4-0.8-0.7-1.3-1
				c-0.5-0.2-1.1-0.4-1.7-0.4c-0.6,0-1.1,0.1-1.6,0.4c-0.5,0.2-1,0.6-1.4,1c-0.4,0.4-0.7,0.9-0.9,1.5c-0.2,0.6-0.3,1.2-0.3,1.8
				c0,0.6,0.1,1.2,0.3,1.8c0.2,0.6,0.5,1,0.9,1.5c0.4,0.4,0.8,0.7,1.4,1C186.1,121.9,186.6,122.1,187.2,122.1z"/>
		</g>
	</g>
</g>
<g>
	<g transform="translate(259.271417, 393.340431)">
		<g>
			<path class="st7" d="M90.4,134.2c-1-1.4-1.7-3-2.2-4.7c-0.5-1.7-0.8-3.6-0.8-5.5c0-1.9,0.3-3.8,0.8-5.5c0.5-1.7,1.3-3.3,2.2-4.7
				l1.8,0.5c-0.9,1.3-1.6,2.8-2.1,4.5c-0.5,1.6-0.8,3.4-0.8,5.2c0,1.9,0.3,3.6,0.8,5.3c0.5,1.7,1.2,3.1,2.2,4.5L90.4,134.2z"/>
		</g>
	</g>
</g>
<g>
	<g transform="translate(274.241501, 393.340431)">
		<g>
			<path class="st7" d="M91.9,133.8c0.9-1.3,1.6-2.8,2.2-4.5c0.5-1.7,0.8-3.4,0.8-5.3c0-1.8-0.3-3.6-0.8-5.2
				c-0.5-1.6-1.2-3.1-2.1-4.5l1.8-0.5c0.9,1.4,1.7,3,2.2,4.7c0.5,1.7,0.8,3.5,0.8,5.5c0,1.9-0.3,3.8-0.8,5.5
				c-0.5,1.7-1.3,3.3-2.2,4.7L91.9,133.8z"/>
		</g>
	</g>
</g>
<g>
	<g transform="translate(279.373135, 393.340431)">
	</g>
</g>
<g>
	<g transform="translate(467.637285, 393.340431)">
		<g>
			<path class="st7" d="M158.7,117.2h-2.1v-2.1h4.5v16.1h-2.4V117.2z"/>
		</g>
	</g>
</g>
<g>
	<g transform="translate(472.717935, 393.340431)">
		<g>
			<path class="st7" d="M163.1,129.1c0.5,0,0.9-0.1,1.3-0.2c0.4-0.2,0.8-0.4,1-0.7c0.3-0.3,0.5-0.7,0.7-1.1c0.2-0.4,0.3-0.8,0.3-1.3
				c0-0.6-0.1-1.1-0.4-1.6c-0.2-0.5-0.6-0.9-1-1.2c-0.2-0.1-0.4-0.2-0.7-0.3c-0.3-0.1-0.6-0.2-0.9-0.2c-0.3,0-0.6,0-1,0
				c-0.3,0-0.6,0.1-0.9,0.2c-0.3,0.2-0.6,0.4-0.9,0.6l-1.4-0.9l0.8-7.3h7v2.1h-5l-0.4,3.4c0.8-0.2,1.6-0.3,2.4-0.2
				c0.8,0.1,1.5,0.3,2.1,0.8c0.7,0.5,1.3,1.2,1.7,2c0.4,0.8,0.6,1.7,0.6,2.6c0,0.8-0.1,1.5-0.4,2.2c-0.3,0.7-0.7,1.2-1.2,1.8
				s-1.1,0.9-1.8,1.2c-0.7,0.3-1.4,0.4-2.2,0.4c-0.9,0-1.7-0.2-2.4-0.6c-0.7-0.4-1.4-0.9-1.9-1.5c-0.3-0.3-0.6-0.8-0.8-1.2l1.9-1.1
				c0.1,0.3,0.3,0.7,0.5,1c0.3,0.4,0.7,0.7,1.1,0.9C162.1,129,162.5,129.1,163.1,129.1z"/>
		</g>
	</g>
</g>
<g>
	<g transform="translate(481.859715, 393.340431)">
		<g>
			<path class="st7" d="M170.5,114.4l1.3,0.8l-9.8,16.5l-1.3-0.8L170.5,114.4z"/>
		</g>
	</g>
</g>
<g>
	<g transform="translate(490.355786, 393.340431)">
		<g>
			<path class="st7" d="M169.9,131.3c-0.8,0-1.5-0.2-2.2-0.5c-0.7-0.4-1.3-0.9-1.8-1.6c-0.5-0.7-0.9-1.4-1.2-2.3
				c-0.3-0.9-0.4-1.8-0.4-2.8v-2c0-1.1,0.1-2.1,0.4-3c0.3-0.9,0.7-1.7,1.1-2.3c0.5-0.7,1.1-1.2,1.8-1.5c0.7-0.4,1.5-0.5,2.3-0.5
				c0.8,0,1.6,0.2,2.3,0.5c0.7,0.3,1.3,0.9,1.8,1.5c0.5,0.7,0.9,1.4,1.1,2.3c0.3,0.9,0.4,1.9,0.4,3v2c0,1-0.1,2-0.4,2.9
				c-0.3,0.9-0.7,1.6-1.2,2.3c-0.5,0.7-1.1,1.2-1.8,1.5C171.5,131.2,170.7,131.3,169.9,131.3z M166.6,124.2c0,0.7,0.1,1.4,0.3,2.1
				c0.2,0.6,0.4,1.2,0.8,1.6c0.3,0.4,0.7,0.7,1,0.9c0.4,0.2,0.8,0.3,1.2,0.3c0.5,0,0.9-0.1,1.4-0.4c0.4-0.2,0.8-0.6,1.1-1
				c0.3-0.4,0.5-0.9,0.7-1.5c0.2-0.6,0.2-1.3,0.2-2v-2c0-1.7-0.3-3-1-4c-0.6-0.8-1.4-1.1-2.3-1.1c-1,0-1.8,0.4-2.3,1.1
				c-0.7,0.9-1,2.2-1,3.9V124.2z"/>
		</g>
	</g>
</g>
<g>
	<g transform="translate(500.211231, 393.340431)">
		<g>
			<path class="st7" d="M169.5,117.2h-2.1v-2.1h4.5v16.1h-2.4V117.2z"/>
		</g>
	</g>
</g>
<g>
	<g transform="translate(505.291881, 393.340431)">
		<g>
			<path class="st7" d="M178.3,114.4l1.3,0.8l-9.8,16.5l-1.3-0.8L178.3,114.4z"/>
		</g>
	</g>
</g>
<g>
	<g transform="translate(513.787952, 393.340431)">
		<g>
			<path class="st7" d="M172.3,131.1v-1.6l4.6-5.3c0.7-0.8,1.2-1.5,1.6-1.9c0.4-0.5,0.7-0.8,0.9-1.1c0.2-0.3,0.3-0.5,0.4-0.8
				c0.1-0.2,0.1-0.5,0.1-0.8c0-0.8-0.2-1.5-0.8-1.9c-0.5-0.4-1.1-0.6-1.8-0.6c-0.4,0-0.7,0.1-1,0.2c-0.3,0.1-0.6,0.3-0.8,0.6
				c-0.2,0.2-0.4,0.5-0.6,0.8c-0.1,0.3-0.2,0.6-0.2,0.9h-2.3c0-0.6,0.1-1.2,0.4-1.8c0.3-0.6,0.6-1.1,1.1-1.5c0.4-0.4,1-0.8,1.5-1
				c0.6-0.3,1.2-0.4,1.9-0.4c0.7,0,1.3,0.1,1.9,0.4c0.6,0.2,1.1,0.6,1.5,1c0.4,0.4,0.8,0.9,1,1.5c0.3,0.6,0.4,1.2,0.4,1.8
				c0,0.5-0.1,1-0.2,1.4c-0.1,0.5-0.3,0.9-0.6,1.2l-5.7,6.6h6.8v2.2H172.3z"/>
		</g>
	</g>
</g>
<g>
	<g transform="translate(523.150626, 393.340431)">
		<g>
			<path class="st7" d="M180.8,131.3c-0.8,0-1.5-0.2-2.2-0.5c-0.7-0.4-1.3-0.9-1.8-1.6c-0.5-0.7-0.9-1.4-1.2-2.3
				c-0.3-0.9-0.4-1.8-0.4-2.8v-2c0-1.1,0.1-2.1,0.4-3c0.3-0.9,0.7-1.7,1.1-2.3c0.5-0.7,1.1-1.2,1.8-1.5c0.7-0.4,1.5-0.5,2.3-0.5
				c0.8,0,1.6,0.2,2.3,0.5c0.7,0.3,1.3,0.9,1.8,1.5c0.5,0.7,0.9,1.4,1.1,2.3c0.3,0.9,0.4,1.9,0.4,3v2c0,1-0.1,2-0.4,2.9
				c-0.3,0.9-0.7,1.6-1.2,2.3c-0.5,0.7-1.1,1.2-1.8,1.5C182.4,131.2,181.6,131.3,180.8,131.3z M177.5,124.2c0,0.7,0.1,1.4,0.3,2.1
				c0.2,0.6,0.4,1.2,0.8,1.6c0.3,0.4,0.7,0.7,1,0.9c0.4,0.2,0.8,0.3,1.2,0.3c0.5,0,0.9-0.1,1.4-0.4c0.4-0.2,0.8-0.6,1.1-1
				c0.3-0.4,0.5-0.9,0.7-1.5c0.2-0.6,0.2-1.3,0.2-2v-2c0-1.7-0.3-3-1-4c-0.6-0.8-1.4-1.1-2.3-1.1c-1,0-1.8,0.4-2.3,1.1
				c-0.7,0.9-1,2.2-1,3.9V124.2z"/>
		</g>
	</g>
</g>
<g>
	<g transform="translate(533.006071, 393.340431)">
		<g>
			<path class="st7" d="M178.7,131.1v-1.6l4.6-5.3c0.7-0.8,1.2-1.5,1.6-1.9c0.4-0.5,0.7-0.8,0.9-1.1c0.2-0.3,0.3-0.5,0.4-0.8
				c0.1-0.2,0.1-0.5,0.1-0.8c0-0.8-0.2-1.5-0.8-1.9c-0.5-0.4-1.1-0.6-1.8-0.6c-0.4,0-0.7,0.1-1,0.2c-0.3,0.1-0.6,0.3-0.8,0.6
				c-0.2,0.2-0.4,0.5-0.6,0.8c-0.1,0.3-0.2,0.6-0.2,0.9h-2.3c0-0.6,0.1-1.2,0.4-1.8c0.3-0.6,0.6-1.1,1.1-1.5c0.4-0.4,1-0.8,1.5-1
				c0.6-0.3,1.2-0.4,1.9-0.4c0.7,0,1.3,0.1,1.9,0.4c0.6,0.2,1.1,0.6,1.5,1c0.4,0.4,0.8,0.9,1,1.5c0.3,0.6,0.4,1.2,0.4,1.8
				c0,0.5-0.1,1-0.2,1.4c-0.1,0.5-0.3,0.9-0.6,1.2l-5.7,6.6h6.8v2.2H178.7z"/>
		</g>
	</g>
</g>
<g>
	<g transform="translate(542.368746, 393.340431)">
		<g>
			<path class="st7" d="M188.3,120.6c0.7,0.1,1.3,0.3,1.8,0.6c0.5,0.3,0.9,0.7,1.3,1.1c0.3,0.5,0.6,1,0.7,1.6
				c0.2,0.6,0.2,1.2,0.2,1.8c0,0.8-0.2,1.5-0.5,2.2c-0.3,0.7-0.7,1.3-1.2,1.8c-0.5,0.5-1.1,0.9-1.8,1.2c-0.7,0.3-1.4,0.5-2.1,0.5
				c-0.6,0-1.2-0.1-1.8-0.3c-0.6-0.2-1.1-0.5-1.5-0.9c-0.4-0.4-0.8-0.8-1.2-1.2c-0.3-0.5-0.6-1-0.8-1.5l2.1-0.8
				c0.1,0.4,0.3,0.7,0.5,1c0.2,0.3,0.5,0.6,0.8,0.8c0.3,0.2,0.6,0.4,1,0.5c0.4,0.1,0.7,0.2,1.1,0.1c0.4,0,0.8-0.1,1.2-0.3
				c0.4-0.2,0.7-0.4,1-0.8c0.3-0.3,0.5-0.7,0.7-1c0.2-0.4,0.3-0.8,0.3-1.2c0-0.4-0.1-0.9-0.2-1.3c-0.2-0.4-0.4-0.8-0.7-1.1
				c-0.3-0.3-0.6-0.6-1-0.8c-0.4-0.2-0.8-0.3-1.2-0.3c-0.2,0-0.3,0-0.5,0c-0.2,0-0.3,0.1-0.5,0.1l-0.9-1.1l2.8-4.2h-4.9v-2.1h7.9
				v1.5c-0.5,0.8-1,1.4-1.4,2c-0.2,0.3-0.3,0.5-0.5,0.8c-0.2,0.2-0.3,0.5-0.4,0.6c-0.1,0.2-0.2,0.3-0.3,0.5
				C188.3,120.5,188.3,120.6,188.3,120.6z"/>
		</g>
	</g>
</g>
<g>
	<g transform="translate(259.271417, 422.590439)">
		<g>
			<path class="st6" d="M94.9,128.6v1.6h-5.7v3.4h5.1v1.7h-5.1v3.9h5.7v1.7h-7.5v-12.3H94.9z"/>
		</g>
	</g>
</g>
<g>
	<g transform="translate(266.406235, 422.590439)">
		<g>
			<path class="st6" d="M89.6,135.2h5.1v1.1h-5.1V135.2z"/>
		</g>
	</g>
</g>
<g>
	<g transform="translate(271.409707, 422.590439)">
		<g>
			<path class="st6" d="M101.9,128.6h1.8v12.3h-1.8v-9.4l-3.6,5h-1.4l-3.6-5v9.4h-1.8v-12.3h1.8l4.3,5.9L101.9,128.6z"/>
		</g>
	</g>
</g>
<g>
	<g transform="translate(282.131424, 422.590439)">
		<g>
			<path class="st6" d="M96.2,140.9h-2l5.1-12.3h2l5.1,12.3h-2l-1.6-3.9h-5.1L96.2,140.9z M98.5,135.3h3.7l-1.8-4.4L98.5,135.3z"/>
		</g>
	</g>
</g>
<g>
	<g transform="translate(291.644508, 422.590439)">
		<g>
			<path class="st6" d="M101.5,130.1v9.3h0.9v1.5h-3.6v-1.5h0.9v-9.3h-0.9v-1.5h3.6v1.5H101.5z"/>
		</g>
	</g>
</g>
<g>
	<g transform="translate(296.751937, 422.590439)">
		<g>
			<path class="st6" d="M99.9,140.9v-12.3h1.8v10.6h5.7v1.7H99.9z"/>
		</g>
	</g>
</g>
<g>
	<g transform="translate(259.271417, 470.590436)">
		<g>
			<path class="st6" d="M91.8,156.9l-5.1-12.3h2l4.1,10l4.1-10h2l-5.1,12.3H91.8z"/>
		</g>
	</g>
</g>
<g>
	<g transform="translate(268.784501, 470.590436)">
		<g>
			<path class="st6" d="M91.8,156.9h-2l5.1-12.3h2l5.1,12.3h-2l-1.6-3.9h-5.1L91.8,156.9z M94.1,151.3h3.7l-1.8-4.4L94.1,151.3z"/>
		</g>
	</g>
</g>
<g>
	<g transform="translate(278.297585, 470.590436)">
		<g>
			<path class="st6" d="M93.8,156.9v-12.3h1.8v10.6h5.7v1.7H93.8z"/>
		</g>
	</g>
</g>
<g>
	<g transform="translate(284.964546, 470.590436)">
		<g>
			<path class="st6" d="M101.7,144.4c0.8,0,1.6,0.2,2.4,0.5c0.8,0.3,1.4,0.8,1.9,1.4c0.6,0.6,1,1.2,1.3,2c0.3,0.8,0.5,1.6,0.5,2.4
				c0,0.9-0.2,1.7-0.5,2.4c-0.3,0.8-0.8,1.4-1.3,2c-0.6,0.6-1.2,1-2,1.4c-0.7,0.3-1.5,0.5-2.4,0.5c-0.8,0-1.6-0.2-2.4-0.5
				c-0.7-0.3-1.4-0.8-1.9-1.4c-0.5-0.6-1-1.2-1.3-2c-0.3-0.8-0.5-1.6-0.5-2.4c0-0.9,0.2-1.7,0.5-2.4c0.3-0.8,0.8-1.4,1.3-2
				c0.6-0.6,1.2-1,1.9-1.4C100,144.6,100.8,144.4,101.7,144.4z M101.7,155.3c0.6,0,1.2-0.1,1.7-0.4c0.5-0.2,1-0.6,1.3-1
				c0.4-0.4,0.7-0.9,0.9-1.5c0.2-0.6,0.3-1.2,0.3-1.8c0-0.6-0.1-1.2-0.3-1.8c-0.2-0.6-0.5-1-0.9-1.5c-0.4-0.4-0.8-0.7-1.3-1
				c-0.5-0.2-1.1-0.4-1.7-0.4c-0.6,0-1.1,0.1-1.6,0.4c-0.5,0.2-1,0.6-1.4,1c-0.4,0.4-0.7,0.9-0.9,1.5c-0.2,0.6-0.3,1.2-0.3,1.8
				c0,0.6,0.1,1.2,0.3,1.8c0.2,0.6,0.5,1,0.9,1.5c0.4,0.4,0.8,0.7,1.4,1C100.5,155.2,101.1,155.3,101.7,155.3z"/>
		</g>
	</g>
</g>
<g>
	<g transform="translate(294.932487, 470.590436)">
		<g>
			<path class="st6" d="M109.4,156.9h-2.3l-3.9-5.3h-2.1v5.3h-1.8v-12.3h5c0.5,0,0.9,0.1,1.4,0.3c0.4,0.2,0.8,0.4,1.1,0.8
				c0.3,0.3,0.6,0.7,0.8,1.1c0.2,0.4,0.3,0.9,0.3,1.4c0,0.4-0.1,0.8-0.2,1.1c-0.1,0.4-0.3,0.7-0.5,1c-0.2,0.3-0.5,0.5-0.8,0.8
				c-0.3,0.2-0.6,0.4-1,0.5L109.4,156.9z M104.3,149.9c0.2,0,0.5,0,0.7-0.1c0.2-0.1,0.4-0.2,0.6-0.4c0.2-0.2,0.3-0.4,0.4-0.6
				c0.1-0.2,0.1-0.5,0.1-0.7c0-0.3-0.1-0.5-0.1-0.7c-0.1-0.2-0.2-0.4-0.4-0.6c-0.2-0.2-0.3-0.3-0.6-0.4c-0.2-0.1-0.5-0.2-0.7-0.2
				h-3.2v3.7L104.3,149.9z"/>
		</g>
	</g>
</g>
<g>
	<g transform="translate(303.457877, 470.590436)">
	</g>
</g>
<g>
	<g transform="translate(306.849837, 470.590436)">
		<g>
			<path class="st6" d="M108.2,144.6c0.5,0,0.9,0.1,1.4,0.3c0.4,0.2,0.8,0.4,1.1,0.8c0.3,0.3,0.6,0.7,0.8,1.1
				c0.2,0.4,0.3,0.9,0.3,1.4c0,0.5-0.1,0.9-0.3,1.4c-0.2,0.4-0.4,0.8-0.8,1.1c-0.3,0.3-0.7,0.6-1.1,0.7c-0.4,0.2-0.9,0.3-1.4,0.3
				H105v5.3h-1.8v-12.3H108.2z M108.2,149.9c0.2,0,0.5,0,0.7-0.1c0.2-0.1,0.4-0.2,0.6-0.4c0.2-0.2,0.3-0.4,0.4-0.6
				c0.1-0.2,0.1-0.5,0.1-0.7c0-0.3-0.1-0.5-0.1-0.7c-0.1-0.2-0.2-0.4-0.4-0.6c-0.2-0.2-0.3-0.3-0.6-0.4c-0.2-0.1-0.4-0.2-0.7-0.2
				H105v3.7H108.2z"/>
		</g>
	</g>
</g>
<g>
	<g transform="translate(314.413523, 470.590436)">
		<g>
			<path class="st6" d="M107,156.9h-2l5.1-12.3h2l5.1,12.3h-2l-1.6-3.9h-5.1L107,156.9z M109.3,151.3h3.7l-1.8-4.4L109.3,151.3z"/>
		</g>
	</g>
</g>
<g>
	<g transform="translate(323.926607, 470.590436)">
		<g>
			<path class="st6" d="M115.8,150.3h3.4v4.5c-0.6,0.7-1.2,1.2-2,1.6c-0.8,0.4-1.6,0.6-2.6,0.6c-0.8,0-1.6-0.2-2.4-0.5
				c-0.7-0.3-1.4-0.8-1.9-1.4c-0.5-0.6-1-1.2-1.3-2c-0.3-0.8-0.5-1.6-0.5-2.5c0-0.8,0.2-1.7,0.5-2.4c0.3-0.8,0.8-1.4,1.3-2
				c0.6-0.6,1.2-1,1.9-1.4c0.7-0.3,1.5-0.5,2.4-0.5c0.8,0,1.5,0.2,2.2,0.5c0.7,0.3,1.3,0.7,1.8,1.2l-1.1,1.4c-0.4-0.4-0.8-0.7-1.3-1
				c-0.5-0.2-1-0.4-1.6-0.4c-0.6,0-1.1,0.1-1.6,0.4c-0.5,0.2-1,0.6-1.4,1c-0.4,0.4-0.7,0.9-0.9,1.5c-0.2,0.6-0.3,1.1-0.3,1.8
				c0,0.6,0.1,1.2,0.3,1.8c0.2,0.6,0.5,1.1,0.9,1.5c0.4,0.4,0.8,0.8,1.4,1c0.5,0.2,1.1,0.4,1.6,0.4c0.5,0,1-0.1,1.5-0.3
				c0.5-0.2,0.9-0.5,1.3-0.9V152h-1.6V150.3z"/>
		</g>
	</g>
</g>
<g>
	<g transform="translate(333.153783, 470.590436)">
		<g>
			<path class="st6" d="M117.7,144.4c0.8,0,1.6,0.2,2.4,0.5c0.8,0.3,1.4,0.8,1.9,1.4c0.6,0.6,1,1.2,1.3,2c0.3,0.8,0.5,1.6,0.5,2.4
				c0,0.9-0.2,1.7-0.5,2.4c-0.3,0.8-0.8,1.4-1.3,2c-0.6,0.6-1.2,1-2,1.4c-0.7,0.3-1.5,0.5-2.4,0.5c-0.8,0-1.6-0.2-2.4-0.5
				c-0.7-0.3-1.4-0.8-1.9-1.4c-0.5-0.6-1-1.2-1.3-2c-0.3-0.8-0.5-1.6-0.5-2.4c0-0.9,0.2-1.7,0.5-2.4c0.3-0.8,0.8-1.4,1.3-2
				c0.6-0.6,1.2-1,1.9-1.4C116.1,144.6,116.9,144.4,117.7,144.4z M117.7,155.3c0.6,0,1.2-0.1,1.7-0.4c0.5-0.2,1-0.6,1.3-1
				c0.4-0.4,0.7-0.9,0.9-1.5c0.2-0.6,0.3-1.2,0.3-1.8c0-0.6-0.1-1.2-0.3-1.8c-0.2-0.6-0.5-1-0.9-1.5c-0.4-0.4-0.8-0.7-1.3-1
				c-0.5-0.2-1.1-0.4-1.7-0.4c-0.6,0-1.1,0.1-1.6,0.4c-0.5,0.2-1,0.6-1.4,1c-0.4,0.4-0.7,0.9-0.9,1.5c-0.2,0.6-0.3,1.2-0.3,1.8
				c0,0.6,0.1,1.2,0.3,1.8c0.2,0.6,0.5,1,0.9,1.5c0.4,0.4,0.8,0.7,1.4,1C116.6,155.2,117.1,155.3,117.7,155.3z"/>
		</g>
	</g>
</g>
<g>
	<g transform="translate(477.326283, 470.590436)">
		<g>
			<path class="st6" d="M166.9,150.3h3.4v4.5c-0.6,0.7-1.2,1.2-2,1.6c-0.8,0.4-1.6,0.6-2.6,0.6c-0.8,0-1.6-0.2-2.4-0.5
				c-0.7-0.3-1.4-0.8-1.9-1.4c-0.5-0.6-1-1.2-1.3-2c-0.3-0.8-0.5-1.6-0.5-2.5c0-0.8,0.2-1.7,0.5-2.4c0.3-0.8,0.8-1.4,1.3-2
				c0.6-0.6,1.2-1,1.9-1.4c0.7-0.3,1.5-0.5,2.4-0.5c0.8,0,1.5,0.2,2.2,0.5c0.7,0.3,1.3,0.7,1.8,1.2l-1.1,1.4c-0.4-0.4-0.8-0.7-1.3-1
				c-0.5-0.2-1-0.4-1.6-0.4c-0.6,0-1.1,0.1-1.6,0.4c-0.5,0.2-1,0.6-1.4,1c-0.4,0.4-0.7,0.9-0.9,1.5c-0.2,0.6-0.3,1.1-0.3,1.8
				c0,0.6,0.1,1.2,0.3,1.8c0.2,0.6,0.5,1.1,0.9,1.5c0.4,0.4,0.8,0.8,1.4,1c0.5,0.2,1.1,0.4,1.6,0.4c0.5,0,1-0.1,1.5-0.3
				c0.5-0.2,0.9-0.5,1.3-0.9V152h-1.6V150.3z"/>
		</g>
	</g>
</g>
<g>
	<g transform="translate(486.55346, 470.590436)">
		<g>
			<path class="st6" d="M173.3,156.9H171l-3.9-5.3H165v5.3h-1.8v-12.3h5c0.5,0,0.9,0.1,1.4,0.3c0.4,0.2,0.8,0.4,1.1,0.8
				c0.3,0.3,0.6,0.7,0.8,1.1c0.2,0.4,0.3,0.9,0.3,1.4c0,0.4-0.1,0.8-0.2,1.1c-0.1,0.4-0.3,0.7-0.5,1c-0.2,0.3-0.5,0.5-0.8,0.8
				c-0.3,0.2-0.6,0.4-1,0.5L173.3,156.9z M168.2,149.9c0.2,0,0.5,0,0.7-0.1c0.2-0.1,0.4-0.2,0.6-0.4c0.2-0.2,0.3-0.4,0.4-0.6
				c0.1-0.2,0.1-0.5,0.1-0.7c0-0.3-0.1-0.5-0.1-0.7c-0.1-0.2-0.2-0.4-0.4-0.6c-0.2-0.2-0.3-0.3-0.6-0.4c-0.2-0.1-0.5-0.2-0.7-0.2
				H165v3.7L168.2,149.9z"/>
		</g>
	</g>
</g>
<g>
	<g transform="translate(495.07885, 470.590436)">
		<g>
			<path class="st6" d="M175,152.5c0,0.6-0.1,1.2-0.4,1.8c-0.2,0.5-0.6,1-1,1.4c-0.4,0.4-0.9,0.7-1.4,1c-0.5,0.2-1.1,0.4-1.8,0.4
				s-1.2-0.1-1.8-0.4c-0.5-0.2-1-0.6-1.4-1c-0.4-0.4-0.7-0.9-1-1.4c-0.2-0.6-0.4-1.1-0.4-1.8v-7.9h1.8v7.9c0,0.4,0.1,0.7,0.2,1.1
				c0.1,0.3,0.3,0.6,0.6,0.9c0.2,0.2,0.5,0.5,0.9,0.6c0.3,0.2,0.7,0.2,1.1,0.2c0.4,0,0.7-0.1,1-0.2c0.3-0.2,0.6-0.4,0.9-0.6
				c0.2-0.3,0.4-0.6,0.6-0.9c0.1-0.3,0.2-0.7,0.2-1.1v-7.9h1.8V152.5z"/>
		</g>
	</g>
</g>
<g>
	<g transform="translate(503.318321, 470.590436)">
		<g>
			<path class="st6" d="M173.7,144.6c0.5,0,0.9,0.1,1.4,0.3c0.4,0.2,0.8,0.4,1.1,0.8c0.3,0.3,0.6,0.7,0.8,1.1
				c0.2,0.4,0.3,0.9,0.3,1.4c0,0.5-0.1,0.9-0.3,1.4c-0.2,0.4-0.4,0.8-0.8,1.1c-0.3,0.3-0.7,0.6-1.1,0.7c-0.4,0.2-0.9,0.3-1.4,0.3
				h-3.2v5.3h-1.8v-12.3H173.7z M173.7,149.9c0.2,0,0.5,0,0.7-0.1c0.2-0.1,0.4-0.2,0.6-0.4c0.2-0.2,0.3-0.4,0.4-0.6
				c0.1-0.2,0.1-0.5,0.1-0.7c0-0.3-0.1-0.5-0.1-0.7c-0.1-0.2-0.2-0.4-0.4-0.6c-0.2-0.2-0.3-0.3-0.6-0.4c-0.2-0.1-0.4-0.2-0.7-0.2
				h-3.2v3.7H173.7z"/>
		</g>
	</g>
</g>
<g>
	<g transform="translate(510.882007, 470.590436)">
		<g>
			<path class="st6" d="M177,144.4c0.8,0,1.6,0.2,2.4,0.5c0.8,0.3,1.4,0.8,1.9,1.4c0.6,0.6,1,1.2,1.3,2c0.3,0.8,0.5,1.6,0.5,2.4
				c0,0.9-0.2,1.7-0.5,2.4c-0.3,0.8-0.8,1.4-1.3,2c-0.6,0.6-1.2,1-2,1.4c-0.7,0.3-1.5,0.5-2.4,0.5c-0.8,0-1.6-0.2-2.4-0.5
				c-0.7-0.3-1.4-0.8-1.9-1.4c-0.5-0.6-1-1.2-1.3-2c-0.3-0.8-0.5-1.6-0.5-2.4c0-0.9,0.2-1.7,0.5-2.4c0.3-0.8,0.8-1.4,1.3-2
				c0.6-0.6,1.2-1,1.9-1.4C175.3,144.6,176.1,144.4,177,144.4z M177,155.3c0.6,0,1.2-0.1,1.7-0.4c0.5-0.2,1-0.6,1.3-1
				c0.4-0.4,0.7-0.9,0.9-1.5c0.2-0.6,0.3-1.2,0.3-1.8c0-0.6-0.1-1.2-0.3-1.8c-0.2-0.6-0.5-1-0.9-1.5c-0.4-0.4-0.8-0.7-1.3-1
				c-0.5-0.2-1.1-0.4-1.7-0.4c-0.6,0-1.1,0.1-1.6,0.4c-0.5,0.2-1,0.6-1.4,1c-0.4,0.4-0.7,0.9-0.9,1.5c-0.2,0.6-0.3,1.2-0.3,1.8
				c0,0.6,0.1,1.2,0.3,1.8c0.2,0.6,0.5,1,0.9,1.5c0.4,0.4,0.8,0.7,1.4,1C175.8,155.2,176.4,155.3,177,155.3z"/>
		</g>
	</g>
</g>
<g>
	<g transform="translate(259.271417, 498.047779)">
		<g>
			<path class="st7" d="M100.9,166h-3l-5.1-6.9h-2.8v6.9h-2.4V150h6.5c0.6,0,1.2,0.1,1.8,0.4c0.6,0.2,1.1,0.6,1.5,1
				c0.4,0.4,0.7,0.9,1,1.4c0.2,0.6,0.4,1.1,0.4,1.8c0,0.5-0.1,1-0.2,1.5c-0.2,0.5-0.4,0.9-0.7,1.3c-0.3,0.4-0.6,0.7-1.1,1
				c-0.4,0.3-0.8,0.5-1.3,0.6L100.9,166z M94.3,156.8c0.3,0,0.6-0.1,0.9-0.2c0.3-0.1,0.5-0.3,0.7-0.5c0.2-0.2,0.4-0.5,0.5-0.8
				c0.1-0.3,0.2-0.6,0.2-0.9c0-0.3-0.1-0.6-0.2-0.9c-0.1-0.3-0.3-0.5-0.5-0.8c-0.2-0.2-0.4-0.4-0.7-0.5c-0.3-0.1-0.6-0.2-0.9-0.2
				h-4.1v4.8L94.3,156.8z"/>
		</g>
	</g>
</g>
<g>
	<g transform="translate(270.418271, 498.047779)">
		<g>
			<path class="st7" d="M93.7,163.6c0.4,0.2,0.9,0.3,1.4,0.4v-4.8c-0.6-0.2-1.2-0.3-1.6-0.5c-0.5-0.2-1-0.5-1.3-0.8
				c-0.9-0.7-1.3-1.6-1.3-2.8c0-0.6,0.1-1.1,0.3-1.6c0.2-0.5,0.6-1,1-1.3c0.5-0.4,1-0.7,1.5-0.8c0.5-0.2,1-0.2,1.4-0.2v-1.8h1.5v1.8
				c0.7,0.1,1.2,0.2,1.8,0.5c0.8,0.4,1.5,0.9,1.9,1.6l-1.6,1c-0.4-0.5-0.9-0.8-1.4-1c-0.1,0-0.2-0.1-0.3-0.1c-0.1,0-0.2-0.1-0.3-0.1
				v4.4c0.3,0.1,0.6,0.2,0.8,0.3c0.2,0.1,0.5,0.2,0.7,0.2c0.3,0.1,0.5,0.3,0.8,0.4c0.2,0.1,0.4,0.3,0.6,0.5c0.9,0.8,1.4,1.7,1.4,2.9
				c0,0.6-0.1,1.2-0.4,1.7c-0.2,0.5-0.6,1-1.1,1.4c-0.4,0.3-0.8,0.6-1.3,0.8c-0.5,0.2-1,0.3-1.5,0.4v1.9h-1.5V166
				c-0.9-0.1-1.7-0.3-2.5-0.7c-0.9-0.5-1.6-1.1-2-1.9l1.8-1C92.7,162.9,93.1,163.3,93.7,163.6z M96.6,163.9c1.4-0.2,2.1-0.9,2.1-2.2
				c0-0.3-0.1-0.6-0.1-0.8c-0.1-0.2-0.2-0.4-0.5-0.6c-0.2-0.1-0.4-0.3-0.6-0.4c-0.2-0.1-0.6-0.2-0.9-0.4V163.9z M94.4,156.7
				c0.1,0,0.2,0.1,0.3,0.1c0.1,0,0.2,0.1,0.4,0.1v-4c-0.1,0-0.2,0-0.4,0.1c-0.1,0-0.2,0.1-0.3,0.1c-0.2,0.1-0.3,0.1-0.5,0.2
				c-0.1,0.1-0.3,0.2-0.4,0.3c-0.2,0.2-0.3,0.4-0.4,0.6c-0.1,0.3-0.1,0.5-0.1,0.8c0,0.2,0,0.4,0.1,0.5c0.1,0.2,0.2,0.4,0.4,0.6
				c0.1,0.1,0.2,0.2,0.4,0.3C94,156.5,94.2,156.6,94.4,156.7z"/>
		</g>
	</g>
</g>
<g>
	<g transform="translate(278.812397, 498.047779)">
		<g>
			<path class="st7" d="M99.8,152.1h-6.2V150h9.2v1.1l-6.2,15H94L99.8,152.1z"/>
		</g>
	</g>
</g>
<g>
	<g transform="translate(287.036602, 498.047779)">
		<g>
			<path class="st7" d="M101.2,164c0.5,0,0.9-0.1,1.3-0.2c0.4-0.2,0.8-0.4,1-0.7c0.3-0.3,0.5-0.7,0.7-1.1c0.2-0.4,0.3-0.8,0.3-1.3
				c0-0.6-0.1-1.1-0.4-1.6c-0.2-0.5-0.6-0.9-1-1.2c-0.2-0.1-0.4-0.2-0.7-0.3c-0.3-0.1-0.6-0.2-0.9-0.2c-0.3,0-0.6,0-1,0
				c-0.3,0-0.6,0.1-0.9,0.2c-0.3,0.2-0.6,0.4-0.9,0.6l-1.4-0.9l0.8-7.3h7v2.1h-5l-0.4,3.4c0.8-0.2,1.6-0.3,2.4-0.2
				c0.8,0.1,1.5,0.3,2.1,0.8c0.7,0.5,1.3,1.2,1.7,2c0.4,0.8,0.6,1.7,0.6,2.6c0,0.8-0.1,1.5-0.4,2.2c-0.3,0.7-0.7,1.2-1.2,1.8
				s-1.1,0.9-1.8,1.2c-0.7,0.3-1.4,0.4-2.2,0.4c-0.9,0-1.7-0.2-2.4-0.6c-0.7-0.4-1.4-0.9-1.9-1.5c-0.3-0.3-0.6-0.8-0.8-1.2l1.9-1.1
				c0.1,0.3,0.3,0.7,0.5,1c0.3,0.4,0.7,0.7,1.1,0.9C100.2,163.9,100.6,164,101.2,164z"/>
		</g>
	</g>
</g>
<g>
	<g transform="translate(296.178382, 498.047779)">
		<g>
			<path class="st7" d="M101.5,168.9h-1.8l0.8-5.6h2.6L101.5,168.9z"/>
		</g>
	</g>
</g>
<g>
	<g transform="translate(301.140094, 498.047779)">
		<g>
			<path class="st7" d="M106.8,166.2c-0.8,0-1.5-0.2-2.2-0.5c-0.7-0.4-1.3-0.9-1.8-1.6c-0.5-0.7-0.9-1.4-1.2-2.3
				c-0.3-0.9-0.4-1.8-0.4-2.8v-2c0-1.1,0.1-2.1,0.4-3c0.3-0.9,0.7-1.7,1.1-2.3c0.5-0.7,1.1-1.2,1.8-1.5c0.7-0.4,1.5-0.5,2.3-0.5
				c0.8,0,1.6,0.2,2.3,0.5c0.7,0.3,1.3,0.9,1.8,1.5c0.5,0.7,0.9,1.4,1.1,2.3c0.3,0.9,0.4,1.9,0.4,3v2c0,1-0.1,2-0.4,2.9
				c-0.3,0.9-0.7,1.6-1.2,2.3c-0.5,0.7-1.1,1.2-1.8,1.5C108.4,166.1,107.6,166.2,106.8,166.2z M103.5,159.1c0,0.7,0.1,1.4,0.3,2.1
				c0.2,0.6,0.4,1.2,0.8,1.6c0.3,0.4,0.7,0.7,1,0.9c0.4,0.2,0.8,0.3,1.2,0.3c0.5,0,0.9-0.1,1.4-0.4c0.4-0.2,0.8-0.6,1.1-1
				c0.3-0.4,0.5-0.9,0.7-1.5c0.2-0.6,0.2-1.3,0.2-2v-2c0-1.7-0.3-3-1-4c-0.6-0.8-1.4-1.1-2.3-1.1c-1,0-1.8,0.4-2.3,1.1
				c-0.7,0.9-1,2.2-1,3.9V159.1z"/>
		</g>
	</g>
</g>
<g>
	<g transform="translate(310.995539, 498.047779)">
		<g>
			<path class="st7" d="M110.1,166.2c-0.8,0-1.5-0.2-2.2-0.5c-0.7-0.4-1.3-0.9-1.8-1.6c-0.5-0.7-0.9-1.4-1.2-2.3
				c-0.3-0.9-0.4-1.8-0.4-2.8v-2c0-1.1,0.1-2.1,0.4-3c0.3-0.9,0.7-1.7,1.1-2.3c0.5-0.7,1.1-1.2,1.8-1.5c0.7-0.4,1.5-0.5,2.3-0.5
				c0.8,0,1.6,0.2,2.3,0.5c0.7,0.3,1.3,0.9,1.8,1.5c0.5,0.7,0.9,1.4,1.1,2.3c0.3,0.9,0.4,1.9,0.4,3v2c0,1-0.1,2-0.4,2.9
				c-0.3,0.9-0.7,1.6-1.2,2.3c-0.5,0.7-1.1,1.2-1.8,1.5C111.7,166.1,110.9,166.2,110.1,166.2z M106.8,159.1c0,0.7,0.1,1.4,0.3,2.1
				c0.2,0.6,0.4,1.2,0.8,1.6c0.3,0.4,0.7,0.7,1,0.9c0.4,0.2,0.8,0.3,1.2,0.3c0.5,0,0.9-0.1,1.4-0.4c0.4-0.2,0.8-0.6,1.1-1
				c0.3-0.4,0.5-0.9,0.7-1.5c0.2-0.6,0.2-1.3,0.2-2v-2c0-1.7-0.3-3-1-4c-0.6-0.8-1.4-1.1-2.3-1.1c-1,0-1.8,0.4-2.3,1.1
				c-0.7,0.9-1,2.2-1,3.9V159.1z"/>
		</g>
	</g>
</g>
<g>
	<g transform="translate(482.370163, 498.047779)">
	</g>
</g>
<g>
	<g transform="translate(493.347094, 498.047779)">
	</g>
</g>
<g>
	<g transform="translate(452.019155, 345.340462)">
	</g>
</g>
<g>
	<g transform="translate(340.521198, 144.164895)">
		<g>
			<path class="st3" d="M148.4,16.8c0,1.4-0.2,2.8-0.6,4c-0.4,1.3-0.9,2.5-1.6,3.5c-0.7,1.1-1.6,2-2.6,2.8c-1,0.8-2.1,1.5-3.3,2
				L155,48.1H144l-13.7-17.9H126v17.9h-9.5V3.6h19.2c1.8,0,3.4,0.3,5,1c1.6,0.7,2.9,1.6,4.1,2.8c1.2,1.2,2.1,2.6,2.7,4.2
				C148.1,13.3,148.4,15,148.4,16.8z M134.4,21.5c1.2,0,2.2-0.4,3.1-1.4c0.9-0.9,1.3-2,1.3-3.3c0-1.2-0.4-2.3-1.3-3.2
				c-0.9-0.9-1.9-1.4-3.1-1.4H126v9.2H134.4z"/>
		</g>
	</g>
</g>
<g>
	<g transform="translate(379.104024, 144.164895)">
		<g>
			<path class="st3" d="M145.5,3.6v8h-3.3v28.5h3.3v8h-16.2v-8h3.3V11.6h-3.3v-8H145.5z"/>
		</g>
	</g>
</g>
<g>
	<g transform="translate(401.897495, 144.164895)">
		<g>
			<path class="st3" d="M136.9,3.6h27.8v8.6h-18.2v8h16V29h-16v19.1h-9.5V3.6z"/>
		</g>
	</g>
</g>
<g>
	<g transform="translate(431.833773, 144.164895)">
		<g>
			<path class="st3" d="M174.2,3.6l18.5,44.4h-10.3l-4-9.5h-18.9l-4,9.5h-10.3l18.6-44.4H174.2z M174.9,29.9l-5.8-14l-5.8,14H174.9z
				"/>
		</g>
	</g>
</g>
<g>
	<g transform="translate(258.516905, 229.862836)">
		<g>
			<path d="M95.9,76.6H89V52h6.9V76.6z M92.4,48.6c-1.1,0-2-0.4-2.7-1.1c-0.7-0.7-1.1-1.6-1.1-2.7c0-1.1,0.4-2,1.1-2.7
				c0.7-0.8,1.6-1.1,2.7-1.1c1.1,0,1.9,0.4,2.7,1.1c0.7,0.7,1.1,1.6,1.1,2.7c0,1.1-0.4,2-1.1,2.7C94.4,48.2,93.5,48.6,92.4,48.6z"/>
		</g>
	</g>
</g>
<g>
	<g transform="translate(272.935887, 229.862836)">
		<g>
			<path d="M108.5,41.4c1.4,0,2.7,0.3,3.9,0.8c1.2,0.5,2.3,1.3,3.2,2.2c0.9,0.9,1.6,2.1,2.2,3.3c0.5,1.3,0.8,2.6,0.8,4.1
				c0,1.5-0.3,2.8-0.8,4.1c-0.5,1.3-1.2,2.4-2.2,3.4c-0.9,1-2,1.7-3.2,2.3c-1.2,0.5-2.5,0.8-3.9,0.8h-7.7v14.2h-7.5V41.4H108.5z
				 M107.5,55.6c1,0,1.8-0.4,2.5-1.1c0.7-0.7,1.1-1.6,1.1-2.6c0-1-0.4-1.8-1.1-2.5c-0.7-0.7-1.5-1.1-2.5-1.1h-6.7v7.3H107.5z"/>
		</g>
	</g>
</g>
<g>
	<g transform="translate(299.089859, 229.862836)">
		<g>
			<path d="M115.7,51.3c1.6,0,3.1,0.3,4.5,1c1.4,0.7,2.6,1.6,3.7,2.8c1,1.2,1.8,2.6,2.4,4.1c0.6,1.6,0.9,3.2,0.9,5v12.4h-6.7v-4.5
				c0-1.3,0-2.6,0-3.9c0-1.3,0-2.5,0-3.5c0-0.9-0.2-1.8-0.5-2.7c-0.3-0.9-0.7-1.7-1.2-2.4c-0.5-0.7-1.2-1.2-1.9-1.6
				c-0.7-0.4-1.5-0.6-2.2-0.6c-0.8,0-1.5,0.1-2.2,0.4c-0.7,0.3-1.3,0.7-1.8,1.2c-0.5,0.5-1,1.2-1.3,2.1c-0.3,0.8-0.5,1.8-0.5,2.9
				v12.6H102V40.4h6.9v13.5c0.9-0.8,1.8-1.5,3-1.9C113,51.5,114.2,51.3,115.7,51.3z"/>
		</g>
	</g>
</g>
<g>
	<g transform="translate(325.281081, 229.862836)">
		<g>
			<path d="M122.8,51.3c1.8,0,3.4,0.3,5,1c1.6,0.7,2.9,1.6,4.1,2.8c1.2,1.2,2.1,2.6,2.8,4.1c0.7,1.6,1,3.2,1,5c0,1.8-0.3,3.5-1,5.1
				c-0.7,1.6-1.6,2.9-2.8,4.1c-1.2,1.2-2.5,2.1-4.1,2.8c-1.6,0.7-3.2,1-5,1c-1.8,0-3.5-0.3-5-1c-1.6-0.7-2.9-1.6-4.1-2.8
				c-1.2-1.2-2.1-2.6-2.8-4.1c-0.7-1.6-1-3.3-1-5.1c0-1.8,0.3-3.5,1-5c0.7-1.6,1.6-2.9,2.8-4.1c1.2-1.2,2.5-2.1,4.1-2.8
				C119.3,51.6,121,51.3,122.8,51.3z M122.8,71.2c0.8,0,1.6-0.2,2.3-0.5c0.7-0.3,1.3-0.8,1.9-1.4c0.6-0.6,1-1.3,1.3-2.1
				c0.3-0.8,0.5-1.7,0.5-2.7c0-1-0.2-1.9-0.5-2.8c-0.3-0.9-0.7-1.6-1.3-2.2c-0.5-0.7-1.2-1.2-1.9-1.5c-0.7-0.4-1.5-0.6-2.3-0.6
				c-0.8,0-1.6,0.2-2.3,0.6c-0.7,0.4-1.4,0.9-1.9,1.5c-0.5,0.6-1,1.4-1.3,2.2c-0.3,0.9-0.5,1.8-0.5,2.8c0,1,0.2,1.9,0.5,2.7
				c0.3,0.8,0.8,1.5,1.3,2.1c0.6,0.6,1.2,1,1.9,1.4C121.2,71,122,71.2,122.8,71.2z"/>
		</g>
	</g>
</g>
<g>
	<g transform="translate(351.658567, 229.862836)">
		<g>
			<path d="M132.3,52c0.9,0,1.9,0.1,3.1,0.4c1.1,0.3,2.2,0.8,3.2,1.5c1,0.7,1.8,1.7,2.5,3c0.7,1.3,1,3,1,5v14.7h-6.9V62.2
				c0-0.8-0.1-1.4-0.4-1.9c-0.2-0.5-0.6-0.9-1-1.3c-0.4-0.3-0.9-0.5-1.4-0.7c-0.5-0.2-1.1-0.2-1.6-0.2c-0.4,0-0.9,0.1-1.4,0.2
				c-0.5,0.1-1,0.4-1.4,0.7c-0.4,0.3-0.8,0.8-1.1,1.3c-0.3,0.5-0.4,1.2-0.4,1.9v14.5h-6.9V52h5.9l1,1.9c0.8-0.6,1.7-1,2.7-1.4
				C130,52.2,131.1,52,132.3,52z"/>
		</g>
	</g>
</g>
<g>
	<g transform="translate(376.806683, 229.862836)">
		<g>
			<path d="M140,51.3c1.8,0,3.5,0.4,5.1,1.1c1.5,0.7,2.8,1.7,3.9,2.9c1.1,1.2,1.9,2.6,2.5,4.2c0.6,1.6,0.9,3.2,0.9,4.8
				c0,1-0.1,2.1-0.4,3.2h-17.6c0.7,1.1,1.6,2.1,2.8,2.9c1.2,0.8,2.6,1.2,4,1.2c1.4,0,2.7-0.1,3.8-0.4c1.1-0.2,2.1-0.5,3.1-0.9
				l2.3,4.2c-1.2,0.9-2.6,1.5-4.2,2c-1.6,0.5-3.2,0.7-5,0.7c-2,0-3.8-0.3-5.5-1c-1.7-0.7-3.2-1.6-4.4-2.8c-1.2-1.2-2.2-2.5-3-4.1
				c-0.7-1.6-1.1-3.3-1.1-5.1c0-1.8,0.3-3.4,1-5c0.7-1.6,1.6-3,2.8-4.1c1.2-1.2,2.5-2.1,4.1-2.8C136.6,51.6,138.2,51.3,140,51.3z
				 M145.6,62.2c-0.4-1.4-1.1-2.6-2.1-3.5c-1-0.9-2.2-1.4-3.5-1.4c-1.3,0-2.5,0.5-3.6,1.4c-1.1,0.9-1.8,2-2.2,3.5H145.6z"/>
		</g>
	</g>
</g>
<g>
	<g transform="translate(403.966509, 229.862836)">
	</g>
</g>
<g>
	<g transform="translate(419.205084, 229.862836)">
		<g>
			<path d="M142.7,41.4h11.7v35.2h-7.6V48.2h-4.2V41.4z"/>
		</g>
	</g>
</g>
<g>
	<g transform="translate(437.871014, 229.862836)">
		<g>
			<path d="M172.2,64.4h5.4V71h-5.4v5.7h-7.5v-5.7h-13.1l-3.2-4.1l18-25.4h5.8V64.4z M164.6,54l-1.1,2.1l-5.2,7.5l-0.9,0.8h7.2V54z"
				/>
		</g>
	</g>
</g>
<g>
	<g transform="translate(468.346424, 229.862836)">
	</g>
</g>
<g>
	<g transform="translate(483.585009, 229.862836)">
		<g>
			<path d="M178.7,41.4c1.4,0,2.7,0.3,3.9,0.8c1.2,0.5,2.3,1.3,3.2,2.2c0.9,0.9,1.6,2.1,2.2,3.3c0.5,1.3,0.8,2.6,0.8,4.1
				c0,1.5-0.3,2.8-0.8,4.1c-0.5,1.3-1.2,2.4-2.2,3.4c-0.9,1-2,1.7-3.2,2.3c-1.2,0.5-2.5,0.8-3.9,0.8H171v14.2h-7.5V41.4H178.7z
				 M177.7,55.6c1,0,1.8-0.4,2.5-1.1c0.7-0.7,1.1-1.6,1.1-2.6c0-1-0.4-1.8-1.1-2.5c-0.7-0.7-1.5-1.1-2.5-1.1H171v7.3H177.7z"/>
		</g>
	</g>
</g>
<g>
	<g transform="translate(509.738969, 229.862836)">
		<g>
			<path d="M178.9,55.4c0.3-0.5,0.7-1,1.1-1.5c0.4-0.5,0.9-0.9,1.5-1.3c0.6-0.4,1.3-0.7,2-0.9c0.8-0.2,1.6-0.4,2.6-0.4
				c1.1,0,2.4,0.2,3.9,0.6l-0.6,6.1c-0.4-0.1-0.7-0.2-1.1-0.2c-0.3-0.1-0.6-0.1-1-0.2c-0.4-0.1-0.7-0.1-1-0.1c-1.1,0-2.1,0.2-3,0.5
				c-0.9,0.3-1.7,0.7-2.4,1.2c-0.7,0.5-1.2,1.2-1.6,1.9c-0.4,0.8-0.6,1.6-0.6,2.4v13.1h-6.9V52h6.2L178.9,55.4z"/>
		</g>
	</g>
</g>
<g>
	<g transform="translate(530.081321, 229.862836)">
		<g>
			<path d="M191,51.3c1.8,0,3.4,0.3,5,1c1.6,0.7,2.9,1.6,4.1,2.8c1.2,1.2,2.1,2.6,2.8,4.1c0.7,1.6,1,3.2,1,5c0,1.8-0.3,3.5-1,5.1
				c-0.7,1.6-1.6,2.9-2.8,4.1c-1.2,1.2-2.5,2.1-4.1,2.8c-1.6,0.7-3.2,1-5,1c-1.8,0-3.5-0.3-5-1c-1.6-0.7-2.9-1.6-4.1-2.8
				c-1.2-1.2-2.1-2.6-2.8-4.1c-0.7-1.6-1-3.3-1-5.1c0-1.8,0.3-3.5,1-5c0.7-1.6,1.6-2.9,2.8-4.1c1.2-1.2,2.5-2.1,4.1-2.8
				C187.6,51.6,189.3,51.3,191,51.3z M191,71.2c0.8,0,1.6-0.2,2.3-0.5c0.7-0.3,1.3-0.8,1.9-1.4c0.6-0.6,1-1.3,1.3-2.1
				c0.3-0.8,0.5-1.7,0.5-2.7c0-1-0.2-1.9-0.5-2.8c-0.3-0.9-0.7-1.6-1.3-2.2c-0.5-0.7-1.2-1.2-1.9-1.5c-0.7-0.4-1.5-0.6-2.3-0.6
				c-0.8,0-1.6,0.2-2.3,0.6c-0.7,0.4-1.4,0.9-1.9,1.5c-0.5,0.6-1,1.4-1.3,2.2c-0.3,0.9-0.5,1.8-0.5,2.8c0,1,0.2,1.9,0.5,2.7
				c0.3,0.8,0.8,1.5,1.3,2.1c0.6,0.6,1.2,1,1.9,1.4C189.4,71,190.2,71.2,191,71.2z"/>
		</g>
	</g>
</g>
<path class="st8" d="M354.9,802.7h370.6c4.7,0,9.3,1.9,12.6,5.2c3.3,3.3,5.2,7.9,5.2,12.6v126.6c0,4.7-1.9,9.3-5.2,12.6
	c-3.4,3.3-7.9,5.2-12.6,5.2H354.9c-9.9,0-17.9-8-17.9-17.9V820.5C337,810.7,345,802.7,354.9,802.7"/>
<path d="M731.3,748.4h-9c-0.2,0-0.4,0-0.6-0.1c-0.2-0.1-0.3-0.2-0.5-0.3s-0.2-0.3-0.3-0.5c-0.1-0.2-0.1-0.4-0.1-0.6
	c0-0.2,0-0.4,0.1-0.6c0.1-0.2,0.2-0.3,0.3-0.5s0.3-0.2,0.5-0.3c0.2-0.1,0.4-0.1,0.6-0.1h9c0.2,0,0.4,0,0.6,0.1
	c0.2,0.1,0.3,0.2,0.5,0.3s0.2,0.3,0.3,0.5c0.1,0.2,0.1,0.4,0.1,0.6c0,0.2,0,0.4-0.1,0.6c-0.1,0.2-0.2,0.3-0.3,0.5s-0.3,0.2-0.5,0.3
	C731.7,748.3,731.5,748.4,731.3,748.4z M716.3,748.4h-9c-0.2,0-0.4,0-0.6-0.1c-0.2-0.1-0.3-0.2-0.5-0.3s-0.2-0.3-0.3-0.5
	c-0.1-0.2-0.1-0.4-0.1-0.6c0-0.2,0-0.4,0.1-0.6c0.1-0.2,0.2-0.3,0.3-0.5s0.3-0.2,0.5-0.3c0.2-0.1,0.4-0.1,0.6-0.1h9
	c0.2,0,0.4,0,0.6,0.1c0.2,0.1,0.3,0.2,0.5,0.3s0.2,0.3,0.3,0.5c0.1,0.2,0.1,0.4,0.1,0.6c0,0.2,0,0.4-0.1,0.6
	c-0.1,0.2-0.2,0.3-0.3,0.5s-0.3,0.2-0.5,0.3C716.7,748.3,716.5,748.4,716.3,748.4z M701.3,748.4h-9c-0.2,0-0.4,0-0.6-0.1
	c-0.2-0.1-0.3-0.2-0.5-0.3s-0.2-0.3-0.3-0.5c-0.1-0.2-0.1-0.4-0.1-0.6c0-0.2,0-0.4,0.1-0.6c0.1-0.2,0.2-0.3,0.3-0.5s0.3-0.2,0.5-0.3
	c0.2-0.1,0.4-0.1,0.6-0.1h9c0.2,0,0.4,0,0.6,0.1c0.2,0.1,0.3,0.2,0.5,0.3s0.2,0.3,0.3,0.5c0.1,0.2,0.1,0.4,0.1,0.6
	c0,0.2,0,0.4-0.1,0.6c-0.1,0.2-0.2,0.3-0.3,0.5s-0.3,0.2-0.5,0.3C701.7,748.3,701.5,748.4,701.3,748.4z M686.3,748.4h-9
	c-0.2,0-0.4,0-0.6-0.1c-0.2-0.1-0.3-0.2-0.5-0.3c-0.1-0.1-0.2-0.3-0.3-0.5c-0.1-0.2-0.1-0.4-0.1-0.6c0-0.2,0-0.4,0.1-0.6
	c0.1-0.2,0.2-0.3,0.3-0.5c0.1-0.1,0.3-0.2,0.5-0.3c0.2-0.1,0.4-0.1,0.6-0.1h9c0.2,0,0.4,0,0.6,0.1c0.2,0.1,0.3,0.2,0.5,0.3
	c0.1,0.1,0.2,0.3,0.3,0.5c0.1,0.2,0.1,0.4,0.1,0.6c0,0.2,0,0.4-0.1,0.6c-0.1,0.2-0.2,0.3-0.3,0.5c-0.1,0.1-0.3,0.2-0.5,0.3
	C686.7,748.3,686.5,748.4,686.3,748.4z M671.3,748.4h-9c-0.2,0-0.4,0-0.6-0.1c-0.2-0.1-0.3-0.2-0.5-0.3s-0.2-0.3-0.3-0.5
	c-0.1-0.2-0.1-0.4-0.1-0.6c0-0.2,0-0.4,0.1-0.6c0.1-0.2,0.2-0.3,0.3-0.5s0.3-0.2,0.5-0.3c0.2-0.1,0.4-0.1,0.6-0.1h9
	c0.2,0,0.4,0,0.6,0.1c0.2,0.1,0.3,0.2,0.5,0.3s0.2,0.3,0.3,0.5c0.1,0.2,0.1,0.4,0.1,0.6c0,0.2,0,0.4-0.1,0.6
	c-0.1,0.2-0.2,0.3-0.3,0.5s-0.3,0.2-0.5,0.3C671.7,748.3,671.5,748.4,671.3,748.4z M656.3,748.4h-9c-0.2,0-0.4,0-0.6-0.1
	c-0.2-0.1-0.3-0.2-0.5-0.3s-0.2-0.3-0.3-0.5c-0.1-0.2-0.1-0.4-0.1-0.6c0-0.2,0-0.4,0.1-0.6c0.1-0.2,0.2-0.3,0.3-0.5s0.3-0.2,0.5-0.3
	c0.2-0.1,0.4-0.1,0.6-0.1h9c0.2,0,0.4,0,0.6,0.1c0.2,0.1,0.3,0.2,0.5,0.3s0.2,0.3,0.3,0.5c0.1,0.2,0.1,0.4,0.1,0.6
	c0,0.2,0,0.4-0.1,0.6c-0.1,0.2-0.2,0.3-0.3,0.5s-0.3,0.2-0.5,0.3C656.7,748.3,656.5,748.4,656.3,748.4z M641.3,748.4h-9
	c-0.2,0-0.4,0-0.6-0.1c-0.2-0.1-0.3-0.2-0.5-0.3s-0.2-0.3-0.3-0.5c-0.1-0.2-0.1-0.4-0.1-0.6c0-0.2,0-0.4,0.1-0.6
	c0.1-0.2,0.2-0.3,0.3-0.5s0.3-0.2,0.5-0.3c0.2-0.1,0.4-0.1,0.6-0.1h9c0.2,0,0.4,0,0.6,0.1c0.2,0.1,0.3,0.2,0.5,0.3s0.2,0.3,0.3,0.5
	c0.1,0.2,0.1,0.4,0.1,0.6c0,0.2,0,0.4-0.1,0.6c-0.1,0.2-0.2,0.3-0.3,0.5s-0.3,0.2-0.5,0.3C641.7,748.3,641.5,748.4,641.3,748.4z
	 M626.2,748.4h-9c-0.2,0-0.4,0-0.6-0.1c-0.2-0.1-0.3-0.2-0.5-0.3s-0.2-0.3-0.3-0.5c-0.1-0.2-0.1-0.4-0.1-0.6c0-0.2,0-0.4,0.1-0.6
	c0.1-0.2,0.2-0.3,0.3-0.5s0.3-0.2,0.5-0.3c0.2-0.1,0.4-0.1,0.6-0.1h9c0.2,0,0.4,0,0.6,0.1c0.2,0.1,0.3,0.2,0.5,0.3s0.2,0.3,0.3,0.5
	c0.1,0.2,0.1,0.4,0.1,0.6c0,0.2,0,0.4-0.1,0.6c-0.1,0.2-0.2,0.3-0.3,0.5s-0.3,0.2-0.5,0.3C626.6,748.3,626.5,748.4,626.2,748.4z
	 M611.2,748.4h-9c-0.2,0-0.4,0-0.6-0.1c-0.2-0.1-0.3-0.2-0.5-0.3s-0.2-0.3-0.3-0.5c-0.1-0.2-0.1-0.4-0.1-0.6c0-0.2,0-0.4,0.1-0.6
	c0.1-0.2,0.2-0.3,0.3-0.5s0.3-0.2,0.5-0.3c0.2-0.1,0.4-0.1,0.6-0.1h9c0.2,0,0.4,0,0.6,0.1c0.2,0.1,0.3,0.2,0.5,0.3s0.2,0.3,0.3,0.5
	c0.1,0.2,0.1,0.4,0.1,0.6c0,0.2,0,0.4-0.1,0.6c-0.1,0.2-0.2,0.3-0.3,0.5s-0.3,0.2-0.5,0.3C611.6,748.3,611.4,748.4,611.2,748.4z
	 M596.2,748.4h-9c-0.2,0-0.4,0-0.6-0.1c-0.2-0.1-0.3-0.2-0.5-0.3s-0.2-0.3-0.3-0.5c-0.1-0.2-0.1-0.4-0.1-0.6c0-0.2,0-0.4,0.1-0.6
	c0.1-0.2,0.2-0.3,0.3-0.5s0.3-0.2,0.5-0.3c0.2-0.1,0.4-0.1,0.6-0.1h9c0.2,0,0.4,0,0.6,0.1c0.2,0.1,0.3,0.2,0.5,0.3s0.2,0.3,0.3,0.5
	c0.1,0.2,0.1,0.4,0.1,0.6c0,0.2,0,0.4-0.1,0.6c-0.1,0.2-0.2,0.3-0.3,0.5s-0.3,0.2-0.5,0.3C596.6,748.3,596.4,748.4,596.2,748.4z
	 M581.2,748.4h-9c-0.2,0-0.4,0-0.6-0.1c-0.2-0.1-0.3-0.2-0.5-0.3s-0.2-0.3-0.3-0.5c-0.1-0.2-0.1-0.4-0.1-0.6c0-0.2,0-0.4,0.1-0.6
	c0.1-0.2,0.2-0.3,0.3-0.5s0.3-0.2,0.5-0.3c0.2-0.1,0.4-0.1,0.6-0.1h9c0.2,0,0.4,0,0.6,0.1c0.2,0.1,0.3,0.2,0.5,0.3s0.2,0.3,0.3,0.5
	c0.1,0.2,0.1,0.4,0.1,0.6c0,0.2,0,0.4-0.1,0.6c-0.1,0.2-0.2,0.3-0.3,0.5s-0.3,0.2-0.5,0.3C581.6,748.3,581.4,748.4,581.2,748.4z
	 M566.2,748.4h-9c-0.2,0-0.4,0-0.6-0.1c-0.2-0.1-0.3-0.2-0.5-0.3s-0.2-0.3-0.3-0.5c-0.1-0.2-0.1-0.4-0.1-0.6c0-0.2,0-0.4,0.1-0.6
	c0.1-0.2,0.2-0.3,0.3-0.5s0.3-0.2,0.5-0.3c0.2-0.1,0.4-0.1,0.6-0.1h9c0.2,0,0.4,0,0.6,0.1c0.2,0.1,0.3,0.2,0.5,0.3s0.2,0.3,0.3,0.5
	c0.1,0.2,0.1,0.4,0.1,0.6c0,0.2,0,0.4-0.1,0.6c-0.1,0.2-0.2,0.3-0.3,0.5s-0.3,0.2-0.5,0.3C566.6,748.3,566.4,748.4,566.2,748.4z
	 M551.2,748.4h-9c-0.2,0-0.4,0-0.6-0.1c-0.2-0.1-0.3-0.2-0.5-0.3s-0.2-0.3-0.3-0.5c-0.1-0.2-0.1-0.4-0.1-0.6c0-0.2,0-0.4,0.1-0.6
	c0.1-0.2,0.2-0.3,0.3-0.5s0.3-0.2,0.5-0.3c0.2-0.1,0.4-0.1,0.6-0.1h9c0.2,0,0.4,0,0.6,0.1c0.2,0.1,0.3,0.2,0.5,0.3s0.2,0.3,0.3,0.5
	c0.1,0.2,0.1,0.4,0.1,0.6c0,0.2,0,0.4-0.1,0.6c-0.1,0.2-0.2,0.3-0.3,0.5s-0.3,0.2-0.5,0.3C551.6,748.3,551.4,748.4,551.2,748.4z
	 M536.2,748.4h-9c-0.2,0-0.4,0-0.6-0.1c-0.2-0.1-0.3-0.2-0.5-0.3s-0.2-0.3-0.3-0.5c-0.1-0.2-0.1-0.4-0.1-0.6c0-0.2,0-0.4,0.1-0.6
	c0.1-0.2,0.2-0.3,0.3-0.5s0.3-0.2,0.5-0.3c0.2-0.1,0.4-0.1,0.6-0.1h9c0.2,0,0.4,0,0.6,0.1c0.2,0.1,0.3,0.2,0.5,0.3s0.2,0.3,0.3,0.5
	c0.1,0.2,0.1,0.4,0.1,0.6c0,0.2,0,0.4-0.1,0.6c-0.1,0.2-0.2,0.3-0.3,0.5s-0.3,0.2-0.5,0.3C536.6,748.3,536.4,748.4,536.2,748.4z
	 M521.2,748.4h-9c-0.2,0-0.4,0-0.6-0.1c-0.2-0.1-0.3-0.2-0.5-0.3s-0.2-0.3-0.3-0.5c-0.1-0.2-0.1-0.4-0.1-0.6c0-0.2,0-0.4,0.1-0.6
	c0.1-0.2,0.2-0.3,0.3-0.5s0.3-0.2,0.5-0.3c0.2-0.1,0.4-0.1,0.6-0.1h9c0.2,0,0.4,0,0.6,0.1c0.2,0.1,0.3,0.2,0.5,0.3s0.2,0.3,0.3,0.5
	c0.1,0.2,0.1,0.4,0.1,0.6c0,0.2,0,0.4-0.1,0.6c-0.1,0.2-0.2,0.3-0.3,0.5s-0.3,0.2-0.5,0.3C521.6,748.3,521.4,748.4,521.2,748.4z
	 M506.2,748.4h-9c-0.2,0-0.4,0-0.6-0.1c-0.2-0.1-0.3-0.2-0.5-0.3s-0.2-0.3-0.3-0.5c-0.1-0.2-0.1-0.4-0.1-0.6c0-0.2,0-0.4,0.1-0.6
	c0.1-0.2,0.2-0.3,0.3-0.5s0.3-0.2,0.5-0.3c0.2-0.1,0.4-0.1,0.6-0.1h9c0.2,0,0.4,0,0.6,0.1c0.2,0.1,0.3,0.2,0.5,0.3s0.2,0.3,0.3,0.5
	c0.1,0.2,0.1,0.4,0.1,0.6c0,0.2,0,0.4-0.1,0.6c-0.1,0.2-0.2,0.3-0.3,0.5s-0.3,0.2-0.5,0.3C506.5,748.3,506.4,748.4,506.2,748.4z
	 M491.1,748.4h-9c-0.2,0-0.4,0-0.6-0.1c-0.2-0.1-0.3-0.2-0.5-0.3s-0.2-0.3-0.3-0.5c-0.1-0.2-0.1-0.4-0.1-0.6c0-0.2,0-0.4,0.1-0.6
	c0.1-0.2,0.2-0.3,0.3-0.5s0.3-0.2,0.5-0.3c0.2-0.1,0.4-0.1,0.6-0.1h9c0.2,0,0.4,0,0.6,0.1c0.2,0.1,0.3,0.2,0.5,0.3
	c0.1,0.1,0.2,0.3,0.3,0.5c0.1,0.2,0.1,0.4,0.1,0.6c0,0.2,0,0.4-0.1,0.6c-0.1,0.2-0.2,0.3-0.3,0.5c-0.1,0.1-0.3,0.2-0.5,0.3
	C491.5,748.3,491.3,748.4,491.1,748.4z M476.1,748.4h-9c-0.2,0-0.4,0-0.6-0.1c-0.2-0.1-0.3-0.2-0.5-0.3s-0.2-0.3-0.3-0.5
	c-0.1-0.2-0.1-0.4-0.1-0.6c0-0.2,0-0.4,0.1-0.6c0.1-0.2,0.2-0.3,0.3-0.5s0.3-0.2,0.5-0.3c0.2-0.1,0.4-0.1,0.6-0.1h9
	c0.2,0,0.4,0,0.6,0.1c0.2,0.1,0.3,0.2,0.5,0.3s0.2,0.3,0.3,0.5c0.1,0.2,0.1,0.4,0.1,0.6c0,0.2,0,0.4-0.1,0.6
	c-0.1,0.2-0.2,0.3-0.3,0.5s-0.3,0.2-0.5,0.3C476.5,748.3,476.3,748.4,476.1,748.4z M461.1,748.4h-9c-0.2,0-0.4,0-0.6-0.1
	c-0.2-0.1-0.3-0.2-0.5-0.3s-0.2-0.3-0.3-0.5c-0.1-0.2-0.1-0.4-0.1-0.6c0-0.2,0-0.4,0.1-0.6c0.1-0.2,0.2-0.3,0.3-0.5s0.3-0.2,0.5-0.3
	c0.2-0.1,0.4-0.1,0.6-0.1h9c0.2,0,0.4,0,0.6,0.1c0.2,0.1,0.3,0.2,0.5,0.3s0.2,0.3,0.3,0.5c0.1,0.2,0.1,0.4,0.1,0.6
	c0,0.2,0,0.4-0.1,0.6c-0.1,0.2-0.2,0.3-0.3,0.5s-0.3,0.2-0.5,0.3C461.5,748.3,461.3,748.4,461.1,748.4z M446.1,748.4h-9
	c-0.2,0-0.4,0-0.6-0.1c-0.2-0.1-0.3-0.2-0.5-0.3s-0.2-0.3-0.3-0.5c-0.1-0.2-0.1-0.4-0.1-0.6c0-0.2,0-0.4,0.1-0.6
	c0.1-0.2,0.2-0.3,0.3-0.5s0.3-0.2,0.5-0.3c0.2-0.1,0.4-0.1,0.6-0.1h9c0.2,0,0.4,0,0.6,0.1c0.2,0.1,0.3,0.2,0.5,0.3s0.2,0.3,0.3,0.5
	c0.1,0.2,0.1,0.4,0.1,0.6c0,0.2,0,0.4-0.1,0.6c-0.1,0.2-0.2,0.3-0.3,0.5s-0.3,0.2-0.5,0.3C446.5,748.3,446.3,748.4,446.1,748.4z
	 M431.1,748.4h-9c-0.2,0-0.4,0-0.6-0.1c-0.2-0.1-0.3-0.2-0.5-0.3s-0.2-0.3-0.3-0.5c-0.1-0.2-0.1-0.4-0.1-0.6c0-0.2,0-0.4,0.1-0.6
	c0.1-0.2,0.2-0.3,0.3-0.5s0.3-0.2,0.5-0.3c0.2-0.1,0.4-0.1,0.6-0.1h9c0.2,0,0.4,0,0.6,0.1c0.2,0.1,0.3,0.2,0.5,0.3s0.2,0.3,0.3,0.5
	c0.1,0.2,0.1,0.4,0.1,0.6c0,0.2,0,0.4-0.1,0.6c-0.1,0.2-0.2,0.3-0.3,0.5s-0.3,0.2-0.5,0.3C431.5,748.3,431.3,748.4,431.1,748.4z
	 M416.1,748.4h-9c-0.2,0-0.4,0-0.6-0.1c-0.2-0.1-0.3-0.2-0.5-0.3s-0.2-0.3-0.3-0.5c-0.1-0.2-0.1-0.4-0.1-0.6c0-0.2,0-0.4,0.1-0.6
	c0.1-0.2,0.2-0.3,0.3-0.5s0.3-0.2,0.5-0.3c0.2-0.1,0.4-0.1,0.6-0.1h9c0.2,0,0.4,0,0.6,0.1c0.2,0.1,0.3,0.2,0.5,0.3s0.2,0.3,0.3,0.5
	c0.1,0.2,0.1,0.4,0.1,0.6c0,0.2,0,0.4-0.1,0.6c-0.1,0.2-0.2,0.3-0.3,0.5s-0.3,0.2-0.5,0.3C416.5,748.3,416.3,748.4,416.1,748.4z
	 M401.1,748.4h-9c-0.2,0-0.4,0-0.6-0.1c-0.2-0.1-0.3-0.2-0.5-0.3s-0.2-0.3-0.3-0.5c-0.1-0.2-0.1-0.4-0.1-0.6c0-0.2,0-0.4,0.1-0.6
	c0.1-0.2,0.2-0.3,0.3-0.5s0.3-0.2,0.5-0.3c0.2-0.1,0.4-0.1,0.6-0.1h9c0.2,0,0.4,0,0.6,0.1c0.2,0.1,0.3,0.2,0.5,0.3s0.2,0.3,0.3,0.5
	c0.1,0.2,0.1,0.4,0.1,0.6c0,0.2,0,0.4-0.1,0.6c-0.1,0.2-0.2,0.3-0.3,0.5s-0.3,0.2-0.5,0.3C401.5,748.3,401.3,748.4,401.1,748.4z
	 M386.1,748.4h-9c-0.2,0-0.4,0-0.6-0.1c-0.2-0.1-0.3-0.2-0.5-0.3s-0.2-0.3-0.3-0.5c-0.1-0.2-0.1-0.4-0.1-0.6c0-0.2,0-0.4,0.1-0.6
	c0.1-0.2,0.2-0.3,0.3-0.5s0.3-0.2,0.5-0.3c0.2-0.1,0.4-0.1,0.6-0.1h9c0.2,0,0.4,0,0.6,0.1c0.2,0.1,0.3,0.2,0.5,0.3s0.2,0.3,0.3,0.5
	c0.1,0.2,0.1,0.4,0.1,0.6c0,0.2,0,0.4-0.1,0.6c-0.1,0.2-0.2,0.3-0.3,0.5s-0.3,0.2-0.5,0.3C386.4,748.3,386.3,748.4,386.1,748.4z
	 M371,748.4h-9c-0.2,0-0.4,0-0.6-0.1c-0.2-0.1-0.3-0.2-0.5-0.3s-0.2-0.3-0.3-0.5c-0.1-0.2-0.1-0.4-0.1-0.6c0-0.2,0-0.4,0.1-0.6
	c0.1-0.2,0.2-0.3,0.3-0.5s0.3-0.2,0.5-0.3c0.2-0.1,0.4-0.1,0.6-0.1h9c0.2,0,0.4,0,0.6,0.1c0.2,0.1,0.3,0.2,0.5,0.3s0.2,0.3,0.3,0.5
	c0.1,0.2,0.1,0.4,0.1,0.6c0,0.2,0,0.4-0.1,0.6c-0.1,0.2-0.2,0.3-0.3,0.5s-0.3,0.2-0.5,0.3C371.4,748.3,371.2,748.4,371,748.4z
	 M356,748.4h-9c-0.2,0-0.4,0-0.6-0.1c-0.2-0.1-0.3-0.2-0.5-0.3s-0.2-0.3-0.3-0.5c-0.1-0.2-0.1-0.4-0.1-0.6c0-0.2,0-0.4,0.1-0.6
	c0.1-0.2,0.2-0.3,0.3-0.5s0.3-0.2,0.5-0.3c0.2-0.1,0.4-0.1,0.6-0.1h9c0.2,0,0.4,0,0.6,0.1c0.2,0.1,0.3,0.2,0.5,0.3s0.2,0.3,0.3,0.5
	c0.1,0.2,0.1,0.4,0.1,0.6c0,0.2,0,0.4-0.1,0.6c-0.1,0.2-0.2,0.3-0.3,0.5s-0.3,0.2-0.5,0.3C356.4,748.3,356.2,748.4,356,748.4z"/>
  <g>
    <g id="name" transform="translate(500, 458.9)">
      <g>
        %s
      </g>
    </g>
  </g>
  <g>
    <g id="ddd" transform="translate(348.5, 524)">
      <g>
        %s
      </g>
    </g>
  </g>
  <g>
    <g id="phone" transform="translate(375, 524)">
      <g>
        %s
      </g>
    </g>
  </g>
  %s
  <g>
    <g transform="translate(425, 915)">
      <g>
        %s
      </g>
    </g>
  </g>
</svg>
